/* XPM */
static char *_db6155c17974dfcba6ada5070fea49b8IPEJN5ftJGmwesE[] = {
/* columns rows colors chars-per-pixel */
"50 50 2 1 ",
"  c #351D02",
". c #502A00",
/* pixels */
"..................................................",
"..................................................",
"..................................................",
" . . . . . . . . . . . . . . . . . . . . . . . . .",
"                                                  ",
" . . . . . . . . . . . . . . . . . . . . . . . . .",
"..................................................",
"..................................................",
"..................................................",
"..................................................",
"  .   .   .   .   .   .   .   .   .   .   .   .   ",
" . . . . . . . . . . . . . . . . . . . . . . . . .",
"                                                  ",
"..................................................",
"..................................................",
"..................................................",
"..................................................",
"..................................................",
"..................................................",
" . . . . . . . . . . . . . . . . . . . . . . . . .",
"                                                  ",
" . . . . . . . . . . . . . . . . . . . . . . . . .",
"..................................................",
"..................................................",
"..................................................",
"..................................................",
"..................................................",
"..................................................",
"..................................................",
"..................................................",
"  .   .   .   .   .   .   .   .   .   .   .   .   ",
" . . . . . . . . . . . . . . . . . . . . . . . . .",
"                                                  ",
"..................................................",
"..................................................",
"..................................................",
"..................................................",
"..................................................",
"..................................................",
" . . . . . . . . . . . . . . . . . . . . . . . . .",
"                                                  ",
" . . . . . . . . . . . . . . . . . . . . . . . . .",
"..................................................",
"..................................................",
"..................................................",
"..................................................",
"  .   .   .   .   .   .   .   .   .   .   .   .   ",
" . . . . . . . . . . . . . . . . . . . . . . . . .",
"                                                  ",
".................................................."
};
