/* XPM */
static char * collective_xpm[] = {
"50 50 841 2",
"  	c #AFA798",
". 	c #ABA491",
"+ 	c #AEA695",
"@ 	c #B0A997",
"# 	c #ADA695",
"$ 	c #ABA492",
"% 	c #ACA492",
"& 	c #ACA392",
"* 	c #AEA796",
"= 	c #AFA897",
"- 	c #B2AA99",
"; 	c #B3AB99",
"> 	c #B3AC9A",
", 	c #B4AC9A",
"' 	c #B6AE9C",
") 	c #B8B19D",
"! 	c #BAB39F",
"~ 	c #BBB39F",
"{ 	c #BCB3A0",
"] 	c #ADA694",
"^ 	c #ACA594",
"/ 	c #ABA290",
"( 	c #A9A08F",
"_ 	c #A9A18F",
": 	c #ABA190",
"< 	c #AAA291",
"[ 	c #A7A08F",
"} 	c #A69F8E",
"| 	c #B1AA98",
"1 	c #B1AA97",
"2 	c #B5AE9B",
"3 	c #B4AD9A",
"4 	c #B6AF9B",
"5 	c #BCB49F",
"6 	c #B6AE9B",
"7 	c #BBB29D",
"8 	c #BAB29E",
"9 	c #BCB39E",
"0 	c #B7AF9B",
"a 	c #ADA693",
"b 	c #A39C8C",
"c 	c #A49B8B",
"d 	c #A29B8B",
"e 	c #A29B8A",
"f 	c #A29A88",
"g 	c #A7A097",
"h 	c #A59C80",
"i 	c #A29878",
"j 	c #A49B7C",
"k 	c #A19879",
"l 	c #A09677",
"m 	c #A19778",
"n 	c #A29879",
"o 	c #A3987A",
"p 	c #A99E80",
"q 	c #ACA081",
"r 	c #ACA182",
"s 	c #ACA183",
"t 	c #ABA183",
"u 	c #ADA485",
"v 	c #B2A888",
"w 	c #B7AD8B",
"x 	c #B5AB89",
"y 	c #B9AE8D",
"z 	c #ACA382",
"A 	c #A19779",
"B 	c #9E9576",
"C 	c #9F9576",
"D 	c #9F9577",
"E 	c #9F9477",
"F 	c #9D9374",
"G 	c #9C9374",
"H 	c #A89F80",
"I 	c #A9A082",
"J 	c #AEA585",
"K 	c #B1A786",
"L 	c #AFA686",
"M 	c #AFA586",
"N 	c #B3A987",
"O 	c #B5AB88",
"P 	c #B6AC89",
"Q 	c #B1A785",
"R 	c #AAA080",
"S 	c #998F72",
"T 	c #998F71",
"U 	c #988F72",
"V 	c #978E71",
"W 	c #968D6F",
"X 	c #9F9682",
"Y 	c #A89E84",
"Z 	c #A4997C",
"` 	c #A3997D",
" .	c #A3997B",
"..	c #A49A7C",
"+.	c #A59B7E",
"@.	c #AA9F82",
"#.	c #AAA083",
"$.	c #ADA285",
"%.	c #ADA486",
"&.	c #ADA385",
"*.	c #ACA285",
"=.	c #B0A789",
"-.	c #B5AC8C",
";.	c #B8AE8E",
">.	c #B7AD8D",
",.	c #B8AF8E",
"'.	c #ACA283",
").	c #A1977A",
"!.	c #A1987A",
"~.	c #A0977A",
"{.	c #9F9579",
"].	c #9F9479",
"^.	c #A1987B",
"/.	c #A79E80",
"(.	c #AAA183",
"_.	c #AEA588",
":.	c #AFA687",
"<.	c #B1A789",
"[.	c #B7AC8C",
"}.	c #B2A98A",
"|.	c #B5AC8B",
"1.	c #B5AA8A",
"2.	c #ABA283",
"3.	c #AFA485",
"4.	c #AAA081",
"5.	c #9A9175",
"6.	c #9B9176",
"7.	c #9B9276",
"8.	c #9B9175",
"9.	c #999074",
"0.	c #988E72",
"a.	c #A09784",
"b.	c #A59D82",
"c.	c #A2977A",
"d.	c #A2987B",
"e.	c #A2997B",
"f.	c #A69B7E",
"g.	c #AAA082",
"h.	c #AA9E81",
"i.	c #ADA284",
"j.	c #ACA284",
"k.	c #B1A88A",
"l.	c #B2AA8B",
"m.	c #B3AB8B",
"n.	c #BBB090",
"o.	c #B3A98A",
"p.	c #A3987C",
"q.	c #A0967A",
"r.	c #9F9679",
"s.	c #9E9479",
"t.	c #A39A7D",
"u.	c #AAA184",
"v.	c #AEA688",
"w.	c #B0A788",
"x.	c #B6AC8C",
"y.	c #B1A889",
"z.	c #B8AE8D",
"A.	c #B0A586",
"B.	c #A89E81",
"C.	c #9E9478",
"D.	c #9A9275",
"E.	c #A69C7E",
"F.	c #A99F81",
"G.	c #ADA386",
"H.	c #ACA384",
"I.	c #B4AC8D",
"J.	c #B7AE8E",
"K.	c #BAB08F",
"L.	c #A1977B",
"M.	c #9E9678",
"N.	c #A9A083",
"O.	c #A99F82",
"P.	c #AEA587",
"Q.	c #B0A88A",
"R.	c #AFA688",
"S.	c #BAB08E",
"T.	c #ABA083",
"U.	c #A49A7E",
"V.	c #9C9277",
"W.	c #A09884",
"X.	c #AAA186",
"Y.	c #ABA184",
"Z.	c #ADA586",
"`.	c #ACA386",
" +	c #B0A687",
".+	c #AFA788",
"++	c #B3AB8C",
"@+	c #B5AD8D",
"#+	c #C0B694",
"$+	c #B9B190",
"%+	c #BEB492",
"&+	c #BBB291",
"*+	c #B4AB8C",
"=+	c #A69D7F",
"-+	c #A3997C",
";+	c #9F977A",
">+	c #A79D81",
",+	c #ADA587",
"'+	c #AFA789",
")+	c #AEA689",
"!+	c #B5AC8D",
"~+	c #B5AB8B",
"{+	c #A59A7E",
"]+	c #9C9377",
"^+	c #9D9377",
"/+	c #9D9378",
"(+	c #9B9275",
"_+	c #999073",
":+	c #B1A88D",
"<+	c #ABA284",
"[+	c #ACA485",
"}+	c #ACA385",
"|+	c #B5AB8C",
"1+	c #BCB291",
"2+	c #B4AB8D",
"3+	c #B9AF8F",
"4+	c #BFB593",
"5+	c #BFB493",
"6+	c #BEB592",
"7+	c #BCB391",
"8+	c #A3987B",
"9+	c #A59B7F",
"0+	c #B0A889",
"a+	c #B6AD8C",
"b+	c #B3A989",
"c+	c #A59C7F",
"d+	c #9D9478",
"e+	c #9D9477",
"f+	c #A19985",
"g+	c #B0A88C",
"h+	c #AEA485",
"i+	c #C0B593",
"j+	c #BEB392",
"k+	c #B6AC8D",
"l+	c #C2B794",
"m+	c #C3B894",
"n+	c #BBB190",
"o+	c #AA9F81",
"p+	c #A89F81",
"q+	c #B3AA8B",
"r+	c #9E9579",
"s+	c #9C9378",
"t+	c #9C9478",
"u+	c #9C9376",
"v+	c #A79F8B",
"w+	c #AEA385",
"x+	c #B7AD8E",
"y+	c #BAB090",
"z+	c #C5BA96",
"A+	c #B7AF8F",
"B+	c #B9B091",
"C+	c #C5B996",
"D+	c #C6BB96",
"E+	c #BFB393",
"F+	c #B0A587",
"G+	c #A19679",
"H+	c #A49A7D",
"I+	c #A69C80",
"J+	c #B1A98A",
"K+	c #B6AD8D",
"L+	c #BCB290",
"M+	c #B6AB8A",
"N+	c #B1A787",
"O+	c #9E9578",
"P+	c #A29A7D",
"Q+	c #A59D8A",
"R+	c #B9B194",
"S+	c #C3B895",
"T+	c #BDB292",
"U+	c #C9BE99",
"V+	c #C3B996",
"W+	c #C4B996",
"X+	c #C4BA96",
"Y+	c #C7BA98",
"Z+	c #ADA384",
"`+	c #A2997C",
" @	c #A79D80",
".@	c #BDB390",
"+@	c #9D9578",
"@@	c #A2997D",
"#@	c #A49B7E",
"$@	c #AAA28D",
"%@	c #BBB295",
"&@	c #C1B793",
"*@	c #C3B995",
"=@	c #C6BB98",
"-@	c #BDB392",
";@	c #C7BC97",
">@	c #C4B995",
",@	c #C8BB97",
"'@	c #C6BA96",
")@	c #BFB391",
"!@	c #AEA384",
"~@	c #A79D7F",
"{@	c #A39A7C",
"]@	c #A0987B",
"^@	c #A69D80",
"/@	c #B9B08F",
"(@	c #B6AE8D",
"_@	c #BBAF8E",
":@	c #A39A7E",
"<@	c #9D9579",
"[@	c #9F967A",
"}@	c #A79E81",
"|@	c #A89F82",
"1@	c #A69E80",
"2@	c #AFA993",
"3@	c #BDB397",
"4@	c #BDB290",
"5@	c #BFB694",
"6@	c #C2B694",
"7@	c #BFB492",
"8@	c #C0B592",
"9@	c #BBB08D",
"0@	c #B4A989",
"a@	c #A69C7F",
"b@	c #B2A98B",
"c@	c #B9AE8F",
"d@	c #A0977B",
"e@	c #9D9479",
"f@	c #A2987C",
"g@	c #A9A184",
"h@	c #B2AB95",
"i@	c #C3B89A",
"j@	c #BFB491",
"k@	c #B9AF8E",
"l@	c #B4AC8C",
"m@	c #A1997B",
"n@	c #A1997A",
"o@	c #A0987A",
"p@	c #AEA486",
"q@	c #AFA588",
"r@	c #A0987C",
"s@	c #ABA386",
"t@	c #ACA487",
"u@	c #AEA687",
"v@	c #B4AA8B",
"w@	c #B0A887",
"x@	c #B3AB95",
"y@	c #C1B598",
"z@	c #A59B7D",
"A@	c #A69D7E",
"B@	c #A59C7E",
"C@	c #A59A7C",
"D@	c #B1A78A",
"E@	c #C8BA91",
"F@	c #C9BB92",
"G@	c #A69C81",
"H@	c #A49B7D",
"I@	c #AAA285",
"J@	c #B3AA8A",
"K@	c #B1A887",
"L@	c #B6AF98",
"M@	c #B5AC90",
"N@	c #A49A7B",
"O@	c #B2A88A",
"P@	c #B1AA8C",
"Q@	c #EAD7A2",
"R@	c #EBD8A3",
"S@	c #A79F82",
"T@	c #B4AB8B",
"U@	c #B6AB8D",
"V@	c #B0A790",
"W@	c #A79D83",
"X@	c #A39A7B",
"Y@	c #B5A98A",
"Z@	c #B9AC8B",
"`@	c #B8AB8C",
" #	c #C0B390",
".#	c #A2977B",
"+#	c #AA9F80",
"@#	c #E6D3A0",
"##	c #ECD8A4",
"$#	c #B7AD8C",
"%#	c #B7AE8D",
"&#	c #BBB18F",
"*#	c #AEA483",
"=#	c #ADA48F",
"-#	c #AAA085",
";#	c #A49B7B",
">#	c #AFA587",
",#	c #B0A688",
"'#	c #B3A98B",
")#	c #B6AC8F",
"!#	c #B5A286",
"~#	c #C3412D",
"{#	c #C33823",
"]#	c #C74B32",
"^#	c #C24B36",
"/#	c #B6A585",
"(#	c #A4977B",
"_#	c #AA9E7F",
":#	c #E8D6A2",
"<#	c #EEDAA5",
"[#	c #EBD19D",
"}#	c #EACF9A",
"|#	c #CAB58C",
"1#	c #ACA486",
"2#	c #B8AF8D",
"3#	c #BAAF8E",
"4#	c #BBB18E",
"5#	c #B8AD8D",
"6#	c #A09885",
"7#	c #A9A084",
"8#	c #A39A7A",
"9#	c #B4AA8C",
"0#	c #B3AA8C",
"a#	c #BAB190",
"b#	c #B8B08F",
"c#	c #BC8970",
"d#	c #C23623",
"e#	c #C22710",
"f#	c #C52D12",
"g#	c #DA5629",
"h#	c #C83416",
"i#	c #C1321E",
"j#	c #D37147",
"k#	c #E9B07B",
"l#	c #EED7A2",
"m#	c #EDD8A2",
"n#	c #E8AF79",
"o#	c #E59F68",
"p#	c #C89B72",
"q#	c #A1987C",
"r#	c #AEA789",
"s#	c #C0B591",
"t#	c #BCB18F",
"u#	c #A9A081",
"v#	c #9D9277",
"w#	c #9C9275",
"x#	c #A29986",
"y#	c #AA9F84",
"z#	c #B5AE8E",
"A#	c #B8AF90",
"B#	c #B7AE8F",
"C#	c #C09C7F",
"D#	c #C15F49",
"E#	c #C2270F",
"F#	c #DB5629",
"G#	c #C63114",
"H#	c #C32810",
"I#	c #C2260F",
"J#	c #C42F16",
"K#	c #D26941",
"L#	c #E9AA73",
"M#	c #EDD7A1",
"N#	c #E4A874",
"O#	c #A99A7C",
"P#	c #A6997C",
"Q#	c #C1B692",
"R#	c #ADA283",
"S#	c #9E9378",
"T#	c #9B9274",
"U#	c #ACA288",
"V#	c #A89D7F",
"W#	c #B4AD8D",
"X#	c #BDB391",
"Y#	c #BCB292",
"Z#	c #C3997E",
"`#	c #C45C4B",
" $	c #CB3B1A",
".$	c #D95427",
"+$	c #DD5B2B",
"@$	c #D75225",
"#$	c #C63115",
"$$	c #C3260F",
"%$	c #C63B1F",
"&$	c #D16740",
"*$	c #E7AD78",
"=$	c #B1A185",
"-$	c #BCB090",
";$	c #C2B693",
">$	c #B0A686",
",$	c #9B9277",
"'$	c #AEA58B",
")$	c #B0A588",
"!$	c #BCB392",
"~$	c #BEB493",
"{$	c #C1B694",
"]$	c #C0B594",
"^$	c #C19D80",
"/$	c #C35643",
"($	c #CC3C1B",
"_$	c #D85226",
":$	c #DE5C2B",
"<$	c #CF431F",
"[$	c #C42C12",
"}$	c #B92018",
"|$	c #B51D1B",
"1$	c #C1331C",
"2$	c #C1694A",
"3$	c #A3977A",
"4$	c #9E9377",
"5$	c #A29A87",
"6$	c #B0A88D",
"7$	c #AEA386",
"8$	c #B5AE8D",
"9$	c #BEB593",
"0$	c #BBB391",
"a$	c #BBB290",
"b$	c #BAB18F",
"c$	c #B9AD8D",
"d$	c #B3A889",
"e$	c #B19C7F",
"f$	c #C13926",
"g$	c #CB3C1B",
"h$	c #D14620",
"i$	c #D65125",
"j$	c #DC582A",
"k$	c #D14822",
"l$	c #C32910",
"m$	c #B92117",
"n$	c #B1191D",
"o$	c #B0181E",
"p$	c #A01C2E",
"q$	c #A87B6E",
"r$	c #B7AF8D",
"s$	c #BCB08E",
"t$	c #9C9375",
"u$	c #B3AA8F",
"v$	c #AEA484",
"w$	c #B2AA8A",
"x$	c #C2B895",
"y$	c #B7AF8E",
"z$	c #C4B895",
"A$	c #A7977B",
"B$	c #C03B27",
"C$	c #C93719",
"D$	c #D34922",
"E$	c #CD3E1C",
"F$	c #CA3A19",
"G$	c #BB2115",
"H$	c #BF2413",
"I$	c #BE2313",
"J$	c #B41C1B",
"K$	c #A81123",
"L$	c #9F0628",
"M$	c #9F2431",
"N$	c #A5997D",
"O$	c #BAB18E",
"P$	c #B9B08E",
"Q$	c #9C9477",
"R$	c #9E9577",
"S$	c #A69E8A",
"T$	c #B2A989",
"U$	c #B9B090",
"V$	c #A5997C",
"W$	c #A95D4E",
"X$	c #C1250F",
"Y$	c #D75026",
"Z$	c #CD401D",
"`$	c #C42B11",
" %	c #C3270F",
".%	c #C32710",
"+%	c #C12510",
"@%	c #AA1422",
"#%	c #B51D1A",
"$%	c #B0191D",
"%%	c #AB1321",
"&%	c #B91F17",
"*%	c #A00727",
"=%	c #9E2230",
"-%	c #B6AE8E",
";%	c #9F9478",
">%	c #A7A08C",
",%	c #B5AD92",
"'%	c #BEB291",
")%	c #BEB391",
"!%	c #A3967A",
"~%	c #A73332",
"{%	c #C02411",
"]%	c #C32A11",
"^%	c #D44D23",
"/%	c #CF441E",
"(%	c #AD1620",
"_%	c #A00627",
":%	c #9F0627",
"<%	c #A00726",
"[%	c #9F0527",
"}%	c #B5A98B",
"|%	c #A1967B",
"1%	c #A9A18D",
"2%	c #B9B094",
"3%	c #C0B693",
"4%	c #C5BA95",
"5%	c #B5AB8A",
"6%	c #A79E7F",
"7%	c #A39579",
"8%	c #A0212E",
"9%	c #A60E23",
"0%	c #C02511",
"a%	c #AA1221",
"b%	c #A13338",
"c%	c #BBB08F",
"d%	c #A3997E",
"e%	c #A9A08D",
"f%	c #B7AF93",
"g%	c #C5B995",
"h%	c #AFA486",
"i%	c #A49C7E",
"j%	c #A4967B",
"k%	c #9F2D34",
"l%	c #AA1322",
"m%	c #BE2312",
"n%	c #AB1421",
"o%	c #A10826",
"p%	c #A03237",
"q%	c #B1A286",
"r%	c #BFB592",
"s%	c #A49B88",
"t%	c #BAB296",
"u%	c #C4B894",
"v%	c #A89E80",
"w%	c #AB987F",
"x%	c #9F202F",
"y%	c #AE161F",
"z%	c #BC2215",
"A%	c #B91F18",
"B%	c #B71E19",
"C%	c #BE2412",
"D%	c #B21A1C",
"E%	c #A30B26",
"F%	c #A55951",
"G%	c #B1A085",
"H%	c #B1A88B",
"I%	c #BCB28F",
"J%	c #9F9678",
"K%	c #9D9476",
"L%	c #ABA48F",
"M%	c #BEB698",
"N%	c #C3B794",
"O%	c #B1A788",
"P%	c #A59C7D",
"Q%	c #B4A68B",
"R%	c #BE644A",
"S%	c #A01329",
"T%	c #AE171F",
"U%	c #B11A1D",
"V%	c #B31C1C",
"W%	c #A30B25",
"X%	c #AE947C",
"Y%	c #A89D80",
"Z%	c #AEA691",
"`%	c #BCB397",
" &	c #BCB08F",
".&	c #C7AF90",
"+&	c #E19967",
"@&	c #B7523E",
"#&	c #A2192A",
"$&	c #AE1620",
"%&	c #B0191E",
"&&	c #A45A51",
"*&	c #AE957C",
"=&	c #B9AF8D",
"-&	c #AEA591",
";&	c #BEB497",
">&	c #A29A7C",
",&	c #D4B28D",
"'&	c #EAA36D",
")&	c #EA9E64",
"!&	c #E79B63",
"~&	c #B14238",
"{&	c #A11629",
"]&	c #A32D39",
"^&	c #AD8470",
"/&	c #AFA892",
"(&	c #C1B799",
"_&	c #ABA082",
":&	c #EAD7A3",
"<&	c #EBD6A4",
"[&	c #ECCD97",
"}&	c #EAA268",
"|&	c #E59A65",
"1&	c #BB6147",
"2&	c #A01A2D",
"3&	c #A23639",
"4&	c #BCAC8D",
"5&	c #9E9679",
"6&	c #ABA385",
"7&	c #B1AA94",
"8&	c #C1B79A",
"9&	c #B0A786",
"0&	c #B4AA89",
"a&	c #ECDAA6",
"b&	c #EEDAA6",
"c&	c #EED8A3",
"d&	c #EDCD97",
"e&	c #E7A16A",
"f&	c #BEAE8E",
"g&	c #B6AA8C",
"h&	c #AD816F",
"i&	c #A12733",
"j&	c #A12632",
"k&	c #A12833",
"l&	c #A2373A",
"m&	c #BEAF8F",
"n&	c #C2B797",
"o&	c #B2A889",
"p&	c #A4997D",
"q&	c #A89F83",
"r&	c #ADA487",
"s&	c #B3AB96",
"t&	c #B8AF93",
"u&	c #BCB192",
"v&	c #D5CBAF",
"w&	c #E3D7B0",
"x&	c #EDD29D",
"y&	c #EAB782",
"z&	c #C0B290",
"A&	c #BDB291",
"B&	c #C4B795",
"C&	c #C0B191",
"D&	c #C6B396",
"E&	c #BEAE8F",
"F&	c #C0B292",
"G&	c #A09679",
"H&	c #A8A082",
"I&	c #B1A888",
"J&	c #B7AE98",
"K&	c #A2987A",
"L&	c #B7AD8F",
"M&	c #D9C09C",
"N&	c #ECB881",
"O&	c #E8A773",
"P&	c #C0B38F",
"Q&	c #BBB08E",
"R&	c #B2A788",
"S&	c #B6AC8A",
"T&	c #B7AF98",
"U&	c #CDB592",
"V&	c #D8AB80",
"W&	c #D0A780",
"X&	c #B2A586",
"Y&	c #ABA285",
"Z&	c #B0A787",
"`&	c #B8B098",
" *	c #A69D83",
".*	c #A99E81",
"+*	c #B7AC8D",
"@*	c #A1977C",
"#*	c #A49B7F",
"$*	c #A9A182",
"%*	c #B4AC94",
"&*	c #A79D7E",
"**	c #C1B593",
"=*	c #AFA689",
"-*	c #B4AA88",
";*	c #B6AE97",
">*	c #AA9E85",
",*	c #B6AD8E",
"'*	c #BCB191",
")*	c #C2B795",
"!*	c #AEA586",
"~*	c #AAA283",
"{*	c #B6AC8B",
"]*	c #A49C88",
"^*	c #B8AD8C",
"/*	c #9E9477",
"(*	c #A19986",
"_*	c #AFA68B",
":*	c #A79C7F",
"<*	c #AFA889",
"[*	c #B4AA8A",
"}*	c #B6AB8B",
"|*	c #ABA081",
"1*	c #9A9174",
"2*	c #B2A88D",
"3*	c #B8AF8F",
"4*	c #C6BC97",
"5*	c #BCB190",
"6*	c #9D9376",
"7*	c #AFA58B",
"8*	c #C6BB97",
"9*	c #BDB28F",
"0*	c #ACA184",
"a*	c #ABA185",
"b*	c #B0A78A",
"c*	c #BDB190",
"d*	c #9C9276",
"e*	c #C7BB98",
"f*	c #BEB491",
"g*	c #A89D82",
"h*	c #B9AE8E",
"i*	c #B7AC8B",
"j*	c #AAA28E",
"k*	c #B8B093",
"l*	c #ACA084",
"m*	c #ADA286",
"n*	c #BAAF8F",
"o*	c #A49C7F",
"p*	c #A0977C",
"q*	c #9F9578",
"r*	c #ADA590",
"s*	c #C1B794",
"t*	c #A4997E",
"u*	c #ACA185",
"v*	c #B1A98B",
"w*	c #9F957A",
"x*	c #B0A894",
"y*	c #B9AF94",
"z*	c #ABA084",
"A*	c #BCB390",
"B*	c #A09579",
"C*	c #A0957A",
"D*	c #ABA384",
"E*	c #ABA28E",
"F*	c #BFB698",
"G*	c #A2977C",
"H*	c #ACA286",
"I*	c #AAA084",
"J*	c #B2A88B",
"K*	c #A0967B",
"L*	c #AAA284",
"M*	c #ACA484",
"N*	c #B2AA95",
"O*	c #A79F80",
"P*	c #A99F83",
"Q*	c #B8AE8F",
"R*	c #AEA487",
"S*	c #B6AD96",
"T*	c #A69B80",
"U*	c #A09678",
"V*	c #9F9677",
"W*	c #A99F80",
"X*	c #ABA182",
"Y*	c #ABA282",
"Z*	c #B3A988",
"`*	c #B3AA89",
" =	c #B7AE8B",
".=	c #BCB18E",
"+=	c #B5AA88",
"@=	c #A89E7E",
"#=	c #A09577",
"$=	c #A19678",
"%=	c #A29678",
"&=	c #9E9475",
"*=	c #A2997A",
"==	c #ACA383",
"-=	c #ADA585",
";=	c #B5AB87",
">=	c #B7AF96",
"  . + @ # $ % & * = - ; > , > , ' ) ! ~ { ] ^ / ( _ : < [ } & | 1 2 3 4 5 2 6 7 8 9 0 a b c d e f g ",
"h i j k l m n o p q r r s s t u v w x y z A B C D E l F G k H I J u K w L M N O P Q R S T S U V W X ",
"Y Z `  ... .+.@.#.$.%.&.$.*.=.-.;.>.>.,.'.).). .!.~.{.].^./.(._.:.<.[.}.}.|.1.2.3.4.5.6.7.8.5.9.0.a.",
"b.c.d.e.f.+.g.h.t &.&.i.j.k.l.m.;.-.n.o.p.e.q. .~.~.r.s.t.u.(.v.w.x.}.y.z.A.B.C.d.6.D.7.7.7.7.5.U a.",
"b. .E.F.t G.&.$.$.&.i.H.y.I.l.,.J.K.>.E.L.r.Z r.r.r.M.q.N.O.P.Q.>.:.R.S.T.U.V.V.C.7.7.7.7.7.7.5.S W.",
"X...$.Y.Z.%.%.%.`. +.+++@+#+$+%+&+*+=+d.~.-+;+r.r.r.~.>+N.,+'+>.)+R.!+~+{+]+^+/+]+]+7.7.7.7.7.(+_+a.",
":+g.<+%.[+%.}+R.|+1+2+3+4+5+6+7+3+j.d.).8+).~.r.r.^.9+#.#.%.0+v.'+a+b+c+d+d+d+e+^+]+]+7.]+^+7.7._+f+",
"g+h+u u [+ +-.i+j+k+;.l+m+%+n+v o+-+L. .d.~.~.~.~.^.-+p+u..+q+*+a+y E.C.r+d+C.C.^+]+d+]+s+]+^+t+u+v+",
"g+w+y.x+y+z+A+B+C+x+D+z+E+F+F+d.L.^.-+).).G+H+L.` ~.I+*.R.J+K+L+M+N+O+d+d+r+q.d+^+/+s+d+s.{.r+P+t.Q+",
"R+S+$+T+U+V+W+X+D+Y+#+i+Z+%.H+f.-+`+^.^.).H+ @H+-+p+<+%.J+@+.@K.y d++@r+s.{.d+d+^+^+r+L.@@U.c+#@+.$@",
"%@&@*@=@-@;@>@,@'@)@z.!@~@ .e.{@^.^.^.]@`+^@-+t.=+%.P.j.*+/@(@_@).{.{.r.:@d+d+d+<@[@:@}@9+>+}@|@1@2@",
"3@4@5@L+6@7@8@9@0@F.a@-+..-+`+]@^.~.^.+.a@c+ @u R.=.b@|+!+c@1+ @r+q.d@L.O+d+d+e@f@a@}@|@}@u.g@.+J h@",
"i@j@S.k@y l@'.B.F.a@-+{@m@e.n@o@~.=+p+F.B.<+p@0+J+b@b@*+-.n.q@r@^.L.d@{.O+O+e@L.H+|@|@}+s@t@u@v@w@x@",
"y@S.|.Z+z@A@z@z@B@-+d.-+e.C@=+ @F. @B. @&.k.}.D@l.l.k.*+7@n+<+E@F@G@{.{.O+O+f@H@|@I@P.P.4@.+}.J@K@L@",
"M@N@e.e.e.j z@e.-+..f.t *.T.Y.}+}+P.k.k.q+q+O@l.P@J+|+i+K.h+H@Q@R@..{.{.O+;+t.S@I@R.R.k@T@n+U@0@M+V@",
"W@X@{@{@{@j H@~@Y.&.p@*.G.Y.0+}.}.}.l.q+q+++*+Y@Z@`@ #n+v .#+#@###R E..#L.L.B.}+q@R.$#%#&#!+S.$#*#=#",
"-#;#{@{@{@=+j.F+>#,#>#w.k.'#v@k.}.*+I.++I.)#!#~#{#]#^#/#(#_#:#<#<#[#}#|#t.B.1#v.q@2#&#3#4#5#Z+~@(+6#",
"7#8#e.e.I p@>#<.,#*+9#*+!+!+*+*+0#!+I.a#b#c#d#e#f#g#h#i#j#k#l#<#m#n#o#p#q#N.g@r#S.n+s#t#u#L.r+v#w#x#",
"y#X@{@g.>#,#<.q+!+z#I.n+,.A#K+,.n+K+S+B#C#D#E#h#F#G#H#I#J#K#L#M#N#O#P# .1@}+.+&#y+Q#t#R#]./+s.S#T#x#",
"U#V#j.,#,#O@q+W#/@%+7+%+X#/@a#y+y+7+Y#Z#`#E# $.$+$@$#$I#$$%$&$*$=$~.^.I+ @R.3+-$;$&#>$,$r+` C.C.w#x#",
"'$&.>#)$'#@+I.!$l+&+~$X#3+{$X#&#&#]$^$/$I#($_$:$+$<$[$I#}$|$1$2$3$^.@@c+u /@J.K.8@M+f@L.-+<@4$C.(+5$",
"6$3.7$b@8$9$y+#+-@0$X#a$b$8@c$d$h+e$f$E#g$h$i$j$k$l$I#I#m$n$o$p$q$d.U.`.,.r$b$X#s$t.[@d@r+r+C.]+t$Q+",
"u$v$w$@+x$y$@+a#i+z+z$5#O.V#+.U.A$B$E#C$D$E$F$D$H#I#G$H$I$J$K$L$M$N$,+k@T@O$P$L+H@Q$s.C.t+d+^+V.R$S$",
":+T$@+@+(@U$1+%+W+b+B@-+f@a@-+V$W$X$H#Y$Z$`$ %.%I#+%@%#%$%%%&%*%=%,#-%0#0+K+[.f@+@;+).d.L.d+^+;%).>%",
",%K+-%a#b#a$'%)%R#z@{@{@-+-+-+!%~%{%I#]%^%/%I#I#I#I#{%(%_%:%<%[%M$}%q+_.@+4@E.|%^.).d.L.O+d+4$q#`+1%",
"2%K+U$J.3%4%5%=+ @6%H@{@-+-+-+7%8%9%0%I#[$`$I#I#I#+%a%<%[%[%[%[%b%o.0+b+c%F.].` ).d.L.<@d+d+s.d%~.e%",
"f%b+1+V+g%h%{@e.~@i%{@{@-+-+-+j%k%_%l%m%I#I#I#I#+%n%o%[%[%[%L$p%q%0+%#r% +{.].).8+d.r+d+d+s.O+` ).s%",
"t%%+W+u%'.e.e.B@H@{@{@-+-+-+v% @w%x%:%y%z%A%B%C%n$D%E%[%[%[%F%G%H%%#8@I%{@{.q.p.J%O+O+d+d+d+r+r+K%L%",
"M%)%N%O%e.e.P%z@{@{@{@-+d.a@}@<+Q%R%S%:%T%U%$%n$o%V%W%[%[%F%X%P$>.8@x.Y%{.O+).q.O+O+O+d+d@{./+^+..Z%",
"`%s# &=+e.H@..H@H+{@{@-+a@v%,#v@.&+&@&#&[%$&%&_%[%[%[%[%&&*&K+K+4+=&+.{.O+r.{.{.O+O+[@~.~.]+e+` P%-&",
";&&#b+>&{@{@H+/.+.z@F.<+p@9#K+,&'&)&!&~&{&_%_%[%[%[%:%]&^&3+a#%#Z+u#O+r.r.r.{.q.[@f@` r+[@L.#@v%A@/&",
"(&3#p+..e.t.B.g._&>#,#}.*+4@:&<&[&}&)&|&1&2&[%[%[%[%3&4&7@5#x. @).r.5&r.r.[@L.q#@@#@^.`+c+|@N.6&<+7&",
"8&9&e.e.z@T.&.$.,#<.y.!+!+0&a&b&c&d&e&f&g&h&i&j&k&l&m&n&x+o&>+p&d.5&r.r.r.[@`++.`+I+d.9+q&q&`.r&Z.s&",
"t&k e.e.Y.7$p@)$O@!+!+!+!+u&v&w&x&y&z&A&3%B&C&D&E&F&1.'#+.H@G&p.r.r.r.r.r.~.+.c+^@c+|@H&#.%.`.v.I&J&",
"-#K&{@=+&.%.q@O@!+!+!+!+2+L&!+M&N&O&P&Q&z.5%R&>$F.v%t.G&H@~.).~.r.r.r.r.L.` +.{@}@(.u.%.P.R.R.k.S&T&",
"W@X@E.G.>#R.}.!+!+!+2+*+3+~$~+U&V&W&X&c++.-+H@!.`+d.L.-+^.~.~.r.O+{.q.~.^.H+Y%}@Y&Y&I R.R.R.'+J@Z&`&",
" *j .*p@,#<.}.@+I.!+y+l+x$b++*v%~@@*#*~.]@^.^.`+e.d.).!.;+^.).G&q.9+@@$*#.u.`.G.%.R.P.R.R.w.~+o.5%%*",
"Y &*$.,#Y.O@@+&+;.J.****t -+`+-+d.^.^.^.^.^.-+^.d.).q.r.d.Z }@Z.}+}+}+j.Y&r&=*'+'+R.R.R.R._.'#>.-*;*",
">*4.>#<.}.,*'*n+)*)%A.#@d.d.{@{@^.^.^.^.q#-+^.~.).d.=+H+t ,#:.!*P.1#Z.0+~*0+0+,+=*R.R.R.R.y.S.{*J ]*",
"U#Z+,#,#!+1+1+)*k@R#d.!.e.-+{@^.^.]@:@f.#@U.).B@(.u k.w.<.=.w.0+J+J+J+J+0+0+'+s@v.P.=.<.<+k@^*&./*(*",
"_*M ,#}.X#y+*@[.:*d.e.e.e.d.^.]@~.E.v%#@{@).v%:.0+<.k.O@O@J+J+J+J+J+J+0+<*.+*+l.b@w.J.[*}*|*t [@1*(*",
"2*p@O@U$3*4*y  @-+m@e.e.^.^.~.H+@.g.E.z@O.&.:.=.k.<.b@b@R.%.J+9#J+Q.0+0+!+k.;.c%k@5*T@^*4.6*C.7.1*(*",
"7* +b@J.8*9* @p&d.{@^.^.^.^.}@0**.*.a**.`.>#=.J+b*b@0#k+|+++J+l.X#a+>.n+n+j@c*k@.@y. @#@d*C.d*d+w#S$",
"M@T@/@e*f*a@H+d.{+/.]@f@t.g*$.G.G.G.*.&.G.=.l.l.*+-.%#++)%m.;.a#h*S.v i*x.{*o.!@u p.r.^+d*C.s.q.!.j*",
"k*k@z+6@j.-+p&+.c+^.e.9+a*l*G.G.G.%.m*m*=.b@b@3+/@X#&#n*,.o.M t (.` t. .o*G&p*q*]+r+]+d+c+9+}@}@=+r*",
"2%z.s*o.` d.t*H+ @..H+Y.$.u**.g.G.m*G.J+v*J+/@c@K.r%3+3+u@ @H+H@{.w*C.e+e+e+]+d+]+{@(.N.`.<+N.6&~*x*",
"y*S+A&a@d.d.^.#@H+B.u.z*m*G.$.$.m*G.}.-.|+,.3+L+A*;.k+H@).q.L.B*C*r.G+Z #@c+}@}+}+%.%.r&^@1#1#1#D*E*",
"F*k@B.^.G*e.B@#@@@H*I*#.&.}+*.m*m*0+m.k@k@;.j+7@n.J*#*P+H+J%~.K*-+8+c.d+d@#@L*%.P.Y&v.v.,+,+1#1#M*N*",
"u$O*^.o@^.d.H++.P*u*t Y.*.(.~*G.G.*+b@|+A&Q*)%n*j.`+^.c+K&~.-+ .8+G&e+`+<+Y&R*>#u@.+u@,+,+w.1#w.J S*",
"T*m U*V*V*U*D ..o+o+&*W*|*W*X*Y*K@Z*w.`* =.=+=@=U*C m D #=$=$=%=&=T#*=H ==J J J -=-=M*H.D*-=>$P ;=>="};
