/* XPM */
static char * exit_xpm[] = {
"50 50 826 2",
"  	c #AFA798",
". 	c #ABA491",
"+ 	c #AEA695",
"@ 	c #B0A997",
"# 	c #ADA695",
"$ 	c #ABA492",
"% 	c #ACA492",
"& 	c #ACA392",
"* 	c #AEA796",
"= 	c #AFA897",
"- 	c #B2AA99",
"; 	c #B3AB99",
"> 	c #B3AC9A",
", 	c #B4AC9A",
"' 	c #B6AE9C",
") 	c #B8B19D",
"! 	c #BAB39F",
"~ 	c #BBB39F",
"{ 	c #BCB3A0",
"] 	c #ADA694",
"^ 	c #ACA594",
"/ 	c #ABA290",
"( 	c #A9A08F",
"_ 	c #A9A18F",
": 	c #ABA190",
"< 	c #AAA291",
"[ 	c #A7A08F",
"} 	c #A69F8E",
"| 	c #B1AA98",
"1 	c #B1AA97",
"2 	c #B5AE9B",
"3 	c #B4AD9A",
"4 	c #B6AF9B",
"5 	c #BCB49F",
"6 	c #B6AE9B",
"7 	c #BBB29D",
"8 	c #BAB29E",
"9 	c #BCB39E",
"0 	c #B7AF9B",
"a 	c #ADA693",
"b 	c #A39C8C",
"c 	c #A49B8B",
"d 	c #A29B8B",
"e 	c #A29B8A",
"f 	c #A29A88",
"g 	c #A7A097",
"h 	c #A59C80",
"i 	c #A29878",
"j 	c #A49B7C",
"k 	c #A19879",
"l 	c #A09677",
"m 	c #A19778",
"n 	c #A29879",
"o 	c #A3987A",
"p 	c #A99E80",
"q 	c #ACA081",
"r 	c #ACA182",
"s 	c #ACA183",
"t 	c #ABA183",
"u 	c #ADA485",
"v 	c #B2A888",
"w 	c #B7AD8B",
"x 	c #B5AB89",
"y 	c #B9AE8D",
"z 	c #ACA382",
"A 	c #A19779",
"B 	c #9E9576",
"C 	c #9F9576",
"D 	c #9F9577",
"E 	c #9F9477",
"F 	c #9D9374",
"G 	c #9C9374",
"H 	c #A89F80",
"I 	c #A9A082",
"J 	c #AEA585",
"K 	c #B1A786",
"L 	c #AFA686",
"M 	c #AFA586",
"N 	c #B3A987",
"O 	c #B5AB88",
"P 	c #B6AC89",
"Q 	c #B1A785",
"R 	c #AAA080",
"S 	c #998F72",
"T 	c #998F71",
"U 	c #988F72",
"V 	c #978E71",
"W 	c #968D6F",
"X 	c #9F9682",
"Y 	c #A89E84",
"Z 	c #A4997C",
"` 	c #998F73",
" .	c #A3997B",
"..	c #A59B7E",
"+.	c #AA9F82",
"@.	c #AAA083",
"#.	c #ADA285",
"$.	c #ADA486",
"%.	c #ADA385",
"&.	c #ACA285",
"*.	c #AFA688",
"=.	c #B3AA8A",
"-.	c #B7AD8D",
";.	c #B8AF8E",
">.	c #ACA283",
",.	c #A1977A",
"'.	c #A1987A",
").	c #A0977A",
"!.	c #9F9579",
"~.	c #9F9479",
"{.	c #A1987B",
"].	c #A79E80",
"^.	c #AAA183",
"/.	c #AEA588",
"(.	c #AFA687",
"_.	c #B1A789",
":.	c #B7AC8C",
"<.	c #B2A98A",
"[.	c #B5AC8B",
"}.	c #B5AA8A",
"|.	c #ABA283",
"1.	c #AFA485",
"2.	c #AAA081",
"3.	c #9A9175",
"4.	c #9B9176",
"5.	c #9B9276",
"6.	c #9B9175",
"7.	c #999074",
"8.	c #988E72",
"9.	c #A09784",
"0.	c #A49C81",
"a.	c #9A8F73",
"b.	c #A09679",
"c.	c #A2997B",
"d.	c #AAA082",
"e.	c #AA9E81",
"f.	c #ADA284",
"g.	c #ACA284",
"h.	c #B1A88A",
"i.	c #B2AA8B",
"j.	c #B3AB8B",
"k.	c #B8AE8E",
"l.	c #B5AC8C",
"m.	c #BBB090",
"n.	c #B3A98A",
"o.	c #A3987C",
"p.	c #A0967A",
"q.	c #9F9679",
"r.	c #9E9479",
"s.	c #A39A7D",
"t.	c #AAA184",
"u.	c #AEA688",
"v.	c #B0A788",
"w.	c #B6AC8C",
"x.	c #B1A889",
"y.	c #B8AE8D",
"z.	c #B0A586",
"A.	c #A89E81",
"B.	c #9E9478",
"C.	c #A2987B",
"D.	c #9A9275",
"E.	c #888166",
"F.	c #A69C7E",
"G.	c #9B9274",
"H.	c #ADA386",
"I.	c #ACA384",
"J.	c #B4AC8D",
"K.	c #B7AE8E",
"L.	c #BAB08F",
"M.	c #A1977B",
"N.	c #9E9678",
"O.	c #A9A083",
"P.	c #A99F82",
"Q.	c #AEA587",
"R.	c #B0A88A",
"S.	c #BAB08E",
"T.	c #ABA083",
"U.	c #A49A7E",
"V.	c #9C9277",
"W.	c #A09884",
"X.	c #A89F84",
"Y.	c #A49A7C",
"Z.	c #ABA184",
"`.	c #ADA586",
" +	c #ACA386",
".+	c #B0A687",
"++	c #AFA788",
"@+	c #B3AB8C",
"#+	c #B5AD8D",
"$+	c #C0B694",
"%+	c #B9B190",
"&+	c #BEB492",
"*+	c #BBB291",
"=+	c #B4AB8C",
"-+	c #A69D7F",
";+	c #A3997C",
">+	c #9F977A",
",+	c #A79D81",
"'+	c #ADA587",
")+	c #AFA789",
"!+	c #AEA689",
"~+	c #B5AC8D",
"{+	c #B5AB8B",
"]+	c #A59A7E",
"^+	c #9C9377",
"/+	c #9D9377",
"(+	c #9D9378",
"_+	c #9B9275",
":+	c #999073",
"<+	c #B1A88D",
"[+	c #ABA284",
"}+	c #ACA485",
"|+	c #ACA385",
"1+	c #B5AB8C",
"2+	c #BCB291",
"3+	c #B4AB8D",
"4+	c #B9AF8F",
"5+	c #BFB593",
"6+	c #BFB493",
"7+	c #BEB592",
"8+	c #BCB391",
"9+	c #A3987B",
"0+	c #A59B7F",
"a+	c #B0A889",
"b+	c #B6AD8C",
"c+	c #B3A989",
"d+	c #A59C7F",
"e+	c #9D9478",
"f+	c #9D9477",
"g+	c #A19985",
"h+	c #B0A88C",
"i+	c #AEA485",
"j+	c #C0B593",
"k+	c #BEB392",
"l+	c #B6AC8D",
"m+	c #C2B794",
"n+	c #C3B894",
"o+	c #BBB190",
"p+	c #AA9F81",
"q+	c #A89F81",
"r+	c #B3AA8B",
"s+	c #9E9579",
"t+	c #9C9378",
"u+	c #9C9478",
"v+	c #9C9376",
"w+	c #A79F8B",
"x+	c #AEA385",
"y+	c #B7AD8E",
"z+	c #BAB090",
"A+	c #C5BA96",
"B+	c #B7AF8F",
"C+	c #B9B091",
"D+	c #C5B996",
"E+	c #C6BB96",
"F+	c #BFB393",
"G+	c #B0A587",
"H+	c #A19679",
"I+	c #A49A7D",
"J+	c #A3997D",
"K+	c #A69C80",
"L+	c #B1A98A",
"M+	c #B6AD8D",
"N+	c #BCB290",
"O+	c #B6AB8A",
"P+	c #B1A787",
"Q+	c #9E9578",
"R+	c #A29A7D",
"S+	c #A59D8A",
"T+	c #B9B194",
"U+	c #C3B895",
"V+	c #BDB292",
"W+	c #C9BE99",
"X+	c #C3B996",
"Y+	c #C4B996",
"Z+	c #C4BA96",
"`+	c #C7BA98",
" @	c #ADA384",
".@	c #A69B7E",
"+@	c #A2997C",
"@@	c #A79D80",
"#@	c #BDB390",
"$@	c #9D9578",
"%@	c #A2997D",
"&@	c #A49B7E",
"*@	c #AAA28D",
"=@	c #BBB295",
"-@	c #C0B693",
";@	c #C3B995",
">@	c #C6BB98",
",@	c #BDB392",
"'@	c #C7BC97",
")@	c #C4B995",
"!@	c #C8BB97",
"~@	c #C6BA96",
"{@	c #BDB290",
"]@	c #B6AC8B",
"^@	c #ADA283",
"/@	c #978F71",
"(@	c #91886B",
"_@	c #8F876A",
":@	c #968E71",
"<@	c #A0987B",
"[@	c #A69D80",
"}@	c #B9B08F",
"|@	c #B6AE8D",
"1@	c #BBAF8E",
"2@	c #948C6F",
"3@	c #898165",
"4@	c #7E775A",
"5@	c #877F63",
"6@	c #978E72",
"7@	c #9D9579",
"8@	c #9F967A",
"9@	c #A39A7E",
"0@	c #A79E81",
"a@	c #A89F82",
"b@	c #A69E80",
"c@	c #AFA993",
"d@	c #BDB397",
"e@	c #BFB694",
"f@	c #C2B694",
"g@	c #BFB492",
"h@	c #C0B592",
"i@	c #BBB08D",
"j@	c #B4A989",
"k@	c #A89E80",
"l@	c #9D9376",
"m@	c #A09678",
"n@	c #A69C7F",
"o@	c #B0A789",
"p@	c #B2A98B",
"q@	c #B9AE8F",
"r@	c #A0977B",
"s@	c #938A6E",
"t@	c #81795C",
"u@	c #827A5E",
"v@	c #837B5F",
"w@	c #837B60",
"x@	c #8E8569",
"y@	c #A9A184",
"z@	c #B2AB95",
"A@	c #C3B89A",
"B@	c #BFB491",
"C@	c #B9AF8E",
"D@	c #B4AC8C",
"E@	c #A99F81",
"F@	c #9A9074",
"G@	c #A1997A",
"H@	c #958D70",
"I@	c #A09779",
"J@	c #AEA486",
"K@	c #AFA588",
"L@	c #9F9578",
"M@	c #968D72",
"N@	c #7C755B",
"O@	c #7E775C",
"P@	c #827B5F",
"Q@	c #91896C",
"R@	c #ABA386",
"S@	c #ACA487",
"T@	c #AEA687",
"U@	c #B4AA8B",
"V@	c #B0A887",
"W@	c #B3AB95",
"X@	c #C1B598",
"Y@	c #A59B7D",
"Z@	c #A69D7E",
"`@	c #A59C7E",
" #	c #887F64",
".#	c #5D6458",
"+#	c #445C58",
"@#	c #445A56",
"##	c #6D6B4E",
"$#	c #8D8569",
"%#	c #8D8568",
"&#	c #B1A78A",
"*#	c #978E73",
"=#	c #535B4E",
"-#	c #415854",
";#	c #394C48",
">#	c #424B39",
",#	c #8C8568",
"'#	c #8B8367",
")#	c #B1A887",
"!#	c #B6AF98",
"~#	c #B5AC90",
"{#	c #A49A7B",
"]#	c #A69C7D",
"^#	c #89866F",
"/#	c #637165",
"(#	c #445D59",
"_#	c #121C1D",
":#	c #385048",
"<#	c #A79E7E",
"[#	c #A39B7E",
"}#	c #B2A88A",
"|#	c #B1AA8B",
"1#	c #9E9679",
"2#	c #768577",
"3#	c #49645F",
"4#	c #273434",
"5#	c #344946",
"6#	c #948F6D",
"7#	c #AAA285",
"8#	c #A9A183",
"9#	c #B4AB8B",
"0#	c #B6AB8D",
"a#	c #B0A790",
"b#	c #A79D83",
"c#	c #A39A7B",
"d#	c #A39A7C",
"e#	c #A49B7D",
"f#	c #A79D7F",
"g#	c #8D8A6F",
"h#	c #131B1C",
"i#	c #445D58",
"j#	c #435B56",
"k#	c #5F684E",
"l#	c #999173",
"m#	c #918A6C",
"n#	c #958E70",
"o#	c #A39C7E",
"p#	c #A49D7E",
"q#	c #968E70",
"r#	c #A59B7A",
"s#	c #9C9176",
"t#	c #9B9376",
"u#	c #3C5551",
"v#	c #344744",
"w#	c #49594C",
"x#	c #979171",
"y#	c #ADA383",
"z#	c #B7AE8D",
"A#	c #BBB18F",
"B#	c #B7AD8C",
"C#	c #AEA483",
"D#	c #ADA48F",
"E#	c #AAA085",
"F#	c #A49B7B",
"G#	c #AFA587",
"H#	c #9E977C",
"I#	c #A59D80",
"J#	c #A8A082",
"K#	c #928B6E",
"L#	c #8E876B",
"M#	c #8B8469",
"N#	c #948B6E",
"O#	c #AFA585",
"P#	c #8C8468",
"Q#	c #8D8468",
"R#	c #999174",
"S#	c #7C755D",
"T#	c #958F75",
"U#	c #9D9479",
"V#	c #A19A7D",
"W#	c #9A9276",
"X#	c #AEA487",
"Y#	c #B6AD8B",
"Z#	c #BAAF8E",
"`#	c #BBB18E",
" $	c #B8AD8D",
".$	c #A09885",
"+$	c #A9A084",
"@$	c #A39A7A",
"#$	c #A1997B",
"$$	c #B4AA8C",
"%$	c #2E1A0C",
"&$	c #221409",
"*$	c #29180A",
"=$	c #2E1B0C",
"-$	c #29180B",
";$	c #211308",
">$	c #8F866C",
",$	c #938A6F",
"'$	c #9F987B",
")$	c #8D876A",
"!$	c #C0B591",
"~$	c #BCB18F",
"{$	c #A9A081",
"]$	c #9D9277",
"^$	c #9C9275",
"/$	c #A29986",
"($	c #AA9F84",
"_$	c #B0A688",
":$	c #B5AE8E",
"<$	c #958D6E",
"[$	c #4B4127",
"}$	c #40331E",
"|$	c #3D301C",
"1$	c #29170A",
"2$	c #2C1A0B",
"3$	c #2C1A0C",
"4$	c #231409",
"5$	c #9B9377",
"6$	c #A39C7D",
"7$	c #978E6F",
"8$	c #C1B692",
"9$	c #9E9378",
"0$	c #ACA288",
"a$	c #A89D7F",
"b$	c #B4AD8D",
"c$	c #AFA786",
"d$	c #999071",
"e$	c #877F62",
"f$	c #3F331F",
"g$	c #2D1A0C",
"h$	c #27160A",
"i$	c #574D3C",
"j$	c #3D301E",
"k$	c #978E70",
"l$	c #C2B693",
"m$	c #B0A686",
"n$	c #9B9277",
"o$	c #AEA58B",
"p$	c #B0A588",
"q$	c #B3A98B",
"r$	c #BCB392",
"s$	c #A69D7C",
"t$	c #413620",
"u$	c #3D301B",
"v$	c #716850",
"w$	c #A79D7D",
"x$	c #ACA282",
"y$	c #A2987C",
"z$	c #9E9377",
"A$	c #A29A87",
"B$	c #B0A88D",
"C$	c #AEA386",
"D$	c #B5AE8D",
"E$	c #BEB593",
"F$	c #7D7459",
"G$	c #2D1B0C",
"H$	c #2B190B",
"I$	c #2B1A0C",
"J$	c #2A190C",
"K$	c #2E1B0D",
"L$	c #362616",
"M$	c #867E64",
"N$	c #9C9375",
"O$	c #B3AA8F",
"P$	c #AEA484",
"Q$	c #B2AA8A",
"R$	c #C2B895",
"S$	c #B7AF8E",
"T$	c #3C2F1B",
"U$	c #2A190B",
"V$	c #443829",
"W$	c #9A9075",
"X$	c #9E9577",
"Y$	c #A69E8A",
"Z$	c #B2A989",
"`$	c #B9B090",
" %	c #8D846A",
".%	c #867C63",
"+%	c #9F9478",
"@%	c #A7A08C",
"#%	c #B5AD92",
"$%	c #B6AE8E",
"%%	c #BAB190",
"&%	c #8F876B",
"*%	c #6C614D",
"=%	c #605643",
"-%	c #8F866B",
";%	c #A1987C",
">%	c #A9A18D",
",%	c #B9B094",
"'%	c #2A180B",
")%	c #28170B",
"!%	c #2C190C",
"~%	c #4D422F",
"{%	c #92896E",
"]%	c #A3997E",
"^%	c #A9A08D",
"/%	c #B7AF93",
"(%	c #BFB490",
"_%	c #25160A",
":%	c #26160A",
"<%	c #28180B",
"[%	c #241409",
"}%	c #2B190A",
"|%	c #4D4330",
"1%	c #A49B88",
"2%	c #BAB296",
"3%	c #C4B894",
"4%	c #28170A",
"5%	c #231509",
"6%	c #1F1207",
"7%	c #271609",
"8%	c #2A180A",
"9%	c #26160B",
"0%	c #9D9476",
"a%	c #ABA48F",
"b%	c #BEB698",
"c%	c #BEB391",
"d%	c #C3B794",
"e%	c #B1A788",
"f%	c #221408",
"g%	c #1D0F05",
"h%	c #1F1208",
"i%	c #201308",
"j%	c #AEA691",
"k%	c #BCB397",
"l%	c #BCB08F",
"m%	c #2C190B",
"n%	c #241509",
"o%	c #1F1107",
"p%	c #483D2C",
"q%	c #A59C7D",
"r%	c #AEA591",
"s%	c #BEB497",
"t%	c #A29A7C",
"u%	c #2E1C0D",
"v%	c #22140A",
"w%	c #1E1106",
"x%	c #776E55",
"y%	c #AFA892",
"z%	c #C1B799",
"A%	c #5D5340",
"B%	c #1E1206",
"C%	c #1B0E05",
"D%	c #1E1107",
"E%	c #190F04",
"F%	c #1C1006",
"G%	c #4B3F2E",
"H%	c #ABA385",
"I%	c #B1AA94",
"J%	c #C1B79A",
"K%	c #B0A786",
"L%	c #91886D",
"M%	c #6E654E",
"N%	c #211408",
"O%	c #1A0F04",
"P%	c #190F05",
"Q%	c #1A0F06",
"R%	c #7B725A",
"S%	c #A89F83",
"T%	c #ADA487",
"U%	c #B3AB96",
"V%	c #B8AF93",
"W%	c #877D65",
"X%	c #1F1106",
"Y%	c #1E1207",
"Z%	c #1A0E05",
"`%	c #1A0F05",
" &	c #180E05",
".&	c #1B1005",
"+&	c #170D06",
"@&	c #1D1107",
"#&	c #675F4A",
"$&	c #938C71",
"%&	c #B1A888",
"&&	c #B7AE98",
"*&	c #A2987A",
"=&	c #453D2F",
"-&	c #1C1106",
";&	c #1B1006",
">&	c #170D05",
",&	c #180E04",
"'&	c #160C05",
")&	c #1A1005",
"!&	c #1C1107",
"~&	c #1B0F05",
"{&	c #8C846B",
"]&	c #B6AC8A",
"^&	c #B7AF98",
"/&	c #8A8269",
"(&	c #201309",
"_&	c #170C04",
":&	c #170D04",
"<&	c #140B05",
"[&	c #291F12",
"}&	c #B0A787",
"|&	c #B8B098",
"1&	c #A69D83",
"2&	c #A99E81",
"3&	c #665E45",
"4&	c #322B1B",
"5&	c #170E05",
"6&	c #160D04",
"7&	c #120B05",
"8&	c #130A04",
"9&	c #190F06",
"0&	c #150C05",
"a&	c #130B05",
"b&	c #281F13",
"c&	c #312919",
"d&	c #271F12",
"e&	c #6F684F",
"f&	c #B5AB8A",
"g&	c #B4AC94",
"h&	c #A79D7E",
"i&	c #C1B593",
"j&	c #C0B493",
"k&	c #766E56",
"l&	c #3C3528",
"m&	c #130A05",
"n&	c #160D05",
"o&	c #160D06",
"p&	c #110A04",
"q&	c #160B05",
"r&	c #120A04",
"s&	c #443E2F",
"t&	c #A1997D",
"u&	c #ABA286",
"v&	c #AFA689",
"w&	c #B4AA88",
"x&	c #B6AE97",
"y&	c #AA9E85",
"z&	c #B6AD8E",
"A&	c #BCB191",
"B&	c #C2B795",
"C&	c #978F72",
"D&	c #5E5744",
"E&	c #100903",
"F&	c #36301F",
"G&	c #2F291A",
"H&	c #120A05",
"I&	c #130905",
"J&	c #67614B",
"K&	c #A49D7F",
"L&	c #AAA283",
"M&	c #A49C88",
"N&	c #A2977B",
"O&	c #90886D",
"P&	c #585242",
"Q&	c #605A48",
"R&	c #8D856B",
"S&	c #A69E81",
"T&	c #ACA586",
"U&	c #B8AD8C",
"V&	c #9E9477",
"W&	c #A19986",
"X&	c #AFA68B",
"Y&	c #BDB391",
"Z&	c #A79C7F",
"`&	c #A7A081",
" *	c #B0A689",
".*	c #AFA889",
"+*	c #B4AA8A",
"@*	c #B6AB8B",
"#*	c #ABA081",
"$*	c #9A9174",
"%*	c #B2A88D",
"&*	c #B8AF8F",
"**	c #C6BC97",
"=*	c #BBB08F",
"-*	c #BCB190",
";*	c #AFA58B",
">*	c #C6BB97",
",*	c #BDB28F",
"'*	c #A4997D",
")*	c #ACA184",
"!*	c #ABA185",
"~*	c #B0A78A",
"{*	c #B3AA8C",
"]*	c #BDB190",
"^*	c #9C9276",
"/*	c #C7BB98",
"(*	c #BEB491",
"_*	c #A89D82",
":*	c #B9AE8E",
"<*	c #B7AC8B",
"[*	c #AEA384",
"}*	c #AAA28E",
"|*	c #B8B093",
"1*	c #ACA084",
"2*	c #ADA286",
"3*	c #BAAF8F",
"4*	c #A49C7F",
"5*	c #A0977C",
"6*	c #ADA590",
"7*	c #C1B794",
"8*	c #A4997E",
"9*	c #ACA185",
"0*	c #B1A98B",
"a*	c #BFB592",
"b*	c #9F957A",
"c*	c #B0A894",
"d*	c #B9AF94",
"e*	c #BDB291",
"f*	c #ABA084",
"g*	c #BCB390",
"h*	c #A09579",
"i*	c #A0957A",
"j*	c #ACA486",
"k*	c #ABA384",
"l*	c #A69D88",
"m*	c #BFB698",
"n*	c #A2977C",
"o*	c #ACA286",
"p*	c #AAA084",
"q*	c #B2A88B",
"r*	c #A49B7F",
"s*	c #9F9678",
"t*	c #A0967B",
"u*	c #A2977A",
"v*	c #AAA284",
"w*	c #ABA285",
"x*	c #ACA484",
"y*	c #9F9882",
"z*	c #A79F80",
"A*	c #A0987A",
"B*	c #A99F83",
"C*	c #B8AE8F",
"D*	c #978F78",
"E*	c #A69B80",
"F*	c #9F9677",
"G*	c #A99F80",
"H*	c #ABA182",
"I*	c #ABA282",
"J*	c #B3A988",
"K*	c #B3AA89",
"L*	c #B7AE8B",
"M*	c #BCB18E",
"N*	c #B5AA88",
"O*	c #A89E7E",
"P*	c #9B9173",
"Q*	c #A09577",
"R*	c #A19678",
"S*	c #A29678",
"T*	c #9E9475",
"U*	c #A2997A",
"V*	c #ACA383",
"W*	c #ADA585",
"X*	c #B1A784",
"Y*	c #7D775C",
"  . + @ # $ % & * = - ; > , > , ' ) ! ~ { ] ^ / ( _ : < [ } & | 1 2 3 4 5 2 6 7 8 9 0 a b c d e f g ",
"h i j k l m n o p q r r s s t u v w x y z A B C D E l F G k H I J u K w L M N O P Q R S T S U V W X ",
"Y Z ` A  . ...+.@.#.$.%.#.&.*.=.-.-.-.;.>.,.,. .'.).!.~.{.].^./.(._.:.<.<.[.}.|.1.2.3.4.5.6.3.7.8.9.",
"0.a.b.c.Z ..d.e.t %.%.f.g.h.i.j.k.l.m.n.o.c.p. .).).q.r.s.t.^.u.v.w.<.x.y.z.A.B.C.4.D.5.5.5.5.3.U 9.",
"E.A F.G.t H.%.#.#.%.f.I.x.J.i.;.K.L.-.F.M.q.Z q.q.q.N.p.O.P.Q.R.-.(.*.S.T.U.V.V.B.5.5.5.5.5.5.3.S W.",
"X.Y.#.Z.`.$.$.$. +.+++@+#+$+%+&+*+=+-+C.).;+>+q.q.q.).,+O.'+)+-.!+*.~+{+]+^+/+(+^+^+5.5.5.5.5._+:+9.",
"<+d.[+$.}+$.|+*.1+2+3+4+5+6+7+8+4+g.C.,.9+,.).q.q.{.0+@.@.$.a+u.)+b+c+d+e+e+e+f+/+^+^+5.^+/+5.5.:+g+",
"h+i+u u }+.+l.j+k+l+k.m+n+&+o+v p+;+M. .C.).).).).{.;+q+t.++r+=+b+y F.B.s+e+B.B./+^+e+^+t+^+/+u+v+w+",
"h+x+x.y+z+A+B+C+D+y+E+A+F+G+G+C.M.{.;+,.,.H+I+M.J+).K+&.*.L+M+N+O+P+Q+e+e+s+p.e+/+(+t+e+r.!.s+R+s.S+",
"T+U+%+V+W+X+Y+Z+E+`+$+j+ @$.I+.@;++@{.{.,.I+@@I+;+q+[+$.L+#+#@L.y e+$@s+r.!.e+e+/+/+s+M.%@U.d+&@..*@",
"=@-@;@>@,@'@)@!@~@{@]@^@c.G./@(@_@_@:@<@+@[@;+{.f+q+Q.g.=+}@|@1@,.!.!.2@3@4@5@6@7@8@9@0@0+,+0@a@b@c@",
"d@{@e@N+f@g@h@i@j@k@I+l@m@f++@<@{.Q+2@..n@d+@@u *.o@p@1+~+q@2+@@s+p.r@s@t@u@v@w@x@C.0@a@0@t.y@++J z@",
"A@B@S.C@y D@>.A.E@I+F@q.:@c.G@H@_+I@k@E@A.[+J@a+L+p@p@=+l.m.K@r@L@M.M@w@N@O@P@s@C.Q@a@|+R@S@T@U@V@W@",
"X@S.[. @Y@Z@Y@Y@`@,. #3..#+#@###L@$#%#u@].h.<.&#i.i.h.=+g@o+].!.q.*#!.=#-#;#>#,#a@'#Q.Q.{@++<.=.)#!#",
"~#{#c.c.c.j Y@c.;+Y.]#^#/#(#_#:#<#[#d++@,#|+}#i.|#L+1+j+L.i+Q+1#p.N.!.2#3#4#5#6#7#$#8#C@9#o+0#j@O+a#",
"b#c#d#d#d#j e#f#Z.C.J@g#h#i#j#k#I v.u.l#m#n#o#p#H q#r#)#>.s#7.5.q.Q+t#u#v#-#w#x#&._@y#z#A#~+S.B#C#D#",
"E#F#d#d#d#-+g.G+J@q+G#1#H#K@0@I#<.=+J#@+K#L#M#N#W O#P#Q#M.q.H@p.p._+R#S#T#U#V#W#X#Y#S.Z#`# $ @f#_+.$",
"+$@$c.c.I J@G#_.G##$$$=+~+J.@+@+p@<.%$&$*$=$=$=$=$=$=$=$=$=$-$;$>$,$q.M.7.>+'$)$S.o+!$~${$M.s+]$^$/$",
"($c#d#d.G#_$_.r+=+:$J.c+<$[$=$}$|$=$=$1$2$=$=$=$=$=$=$=$=$=$3$4$3$=$=$2$5$|+6$7$z+8$~$^@~.(+r.9$G./$",
"0$a$g._$_$}#r+b$c$d$e$f$&$=$=$=$=$=$=$=$=$=$=$=$=$=$=$=$=$=$g$h$=$=$=$=$i$3$j$k$l$A#m$n$s+J+B.B.^$/$",
"o$%.G#p$q$#+J.r$s$t$=$=$-$=$=$=$=$=$=$=$=$=$=$=$=$=$=$3$=$=$=$-$=$=$=$=$=$=$u$v$w$x$y$M.;+7@z$B._+A$",
"B$1.C$p@D$E$4+c#F$G$=$=$-$=$=$=$H$I$=$=$=$=$=$=$3$=$G$J$=$=$=$2$=$=$=$=$=$=$=$K$=$L$M$r@s+s+B.^+N$S+",
"O$P$Q$#+R$S$t#=$T$=$=$=$=$=$=$=$H$=$=$=$=$=$=$=$U$=$G$J$=$=$=$=$=$=$=$=$=$=$=$=$=$=$V$W$u+e+/+V.X$Y$",
"<+Z$#+#+|@`$ %=$=$=$=$=$=$=$=$=$=$=$=$=$=$=$=$=$U$=$=$=$=$=$=$=$=$=$=$=$=$=$=$=$=$=$=$.%M.e+/++%,.@%",
"#%M+$%%%|@&%*%=$=$=$=$=$=$=$=$=$=$=$=$=$=$=$=$H$U$=$=$=$-$=$3$=$=$=$=$=$3$=$=$=$=$=$=$=%-%e+z$;%+@>%",
",%M+`$K.A#=$=$=$=$=$=$=$=$=$=$=$=$=$=$'%=$=$=$)%4$K$=$=$=$=$U$=$!%=$=$g$'%=$=$=$=$=$=$=$~%{%r.]%).^%",
"/%c+2+X+(%=$=$=$=$=$=$2$_%=$=$=$=$=$H$:%=$-$<%4$)%:%-$-$-$H$_%U$[%=$=$=$=$=$=$=$-$}%=$=$=$|%f+J+,.1%",
"2%&+Y+3%f#=$=$=$=$=$=$:%&$=$=$H$*$3$4%&$&$&$&$&$5%&$&$&$&$&$&$6%&$7%8%K$=$=$=$=$9%}%=$=$=$=$^+s+0%a%",
"b%c%d%e%X$=$=$=$=$=$=$f%&$-$&$f%&$4$4%&$g%&$&$&$h%&$&$&$&$&$&$&$i%&$&$&$:%2$=$2$&$}%=$=$=$=$(+/+Y.j%",
"k%!$l%-+X$=$H$=$=$=$m%&$&$&$&$&$i%&$&$&$;$&$&$&$h%&$&$&$&$i%&$&$6%&$&$&$&$&$n%4%o%_%=$=$=$p%f+J+q%r%",
"s%A#c+t%I@u%4%=$K$:%&$&$&$&$&$v%6%&$&$&$&$&$&$w%h%&$&$&$&$&$&$&$6%&$&$&$;$6%&$&$o%n%3$=$=$x%&@k@Z@y%",
"z%Z#q+Y.c.s.A%3$:%&$&$&$B%&$&$;$C%&$&$&$&$6%&$D%E%&$&$&$&$&$&$;$F%&$&$&$&$&$&$&$o%&$4%=$G%).O.H%[+I%",
"J%K%c.c.Y@T.L%M%N%&$&$&$B%&$&$;$C%&$&$&$i%C%;$O%P%;$&$&$&$&$&$h%Q%i%&$&$&$&$&$&$o%&$&$<%R%S% +T%`.U%",
"V%k c.c.Z.C$J@W%&$&$&$&$B%&$&$X%F%&$Y%6%Z%P%`%P% &P%E%`%D%Y%.&P%+&@&&$&$&$&$&$&$6%&$#&$&P.$. +u.%&&&",
"E#*&d#-+%.$.K@7.=&&$&$&$-&v%6%;&P%P%P%P%P%P%P%P%>&P%P%P%,&P%P%P%'&P%)&6%i%!&;$i%~&;${&$.Q.*.*.h.]&^&",
"b#c#F.H.G#*.<.~+~+/&&$(&P%E%P%P%_&P%P%P%P%P%P% &>&P%P% &:&P%P% &<&P%P%P%`%P%B%w%P%[&v+*.*.*.)+=.}&|&",
"1&j 2&J@_$_.<.#+J.c.3&E%4&P%P%P% &P%P%P%P%5&6&7&8&9&P%<&0&P%P%<&a&P%P%b&c&P%P%d&e&D.$.*.*.v.{+n.f&g&",
"Y h&#._$Z.}##+*+k.K.i&j&A.,$k&l&P%'&m&n&o&m&7&7&p&7&7&7&7&q&n&7&r&5&<&s&t&u&v&)+)+*.*.*.*./.q$-.w&x&",
"y&2.G#_.<.z&A&o+B&c%z.&@C.C.d#C&D&m&a&7&7&7&E&7&7&7&7&7&7&F&G&7&H&I&J&K&L&a+a+'+v&*.*.*.*.x.S.]@J M&",
"0$ @_$_$~+2+2+B&C@^@C.'.c.;+d#{.{.<@%@N&O&P&a&a&a&a&a&Q&R&S&u H%T&`.a+L+a+a+)+R@u.Q.o@_.[+C@U&%.V&W&",
"X&M _$<.Y&z+;@:.Z&C.c.c.c.C.{.<@).F.k@&@d#L@F.|.`&].J# *}#L+L+L+L+L+L+a+.*++=+i.p@v.K.+*@*#*t 8@$*W&",
"%*J@}#`$&***y @@;+#$c.c.{.{.).I++.d.F.Y@P.%.(.o@h._.p@p@*.$.L+$$L+R.a+a+~+h.k.=*C@-*9#U&2.l@B.5.$*W&",
";*.+p@K.>*,*@@'*C.d#{.{.{.{.0@)*&.&.!*&. +G#o@L+~*p@{*l+1+@+L+i.Y&b+-.o+o+B@]*C@#@x.@@&@^*B.^*e+^$Y$",
"~#9#}@/*(*n@I+C.]+].<@y$s._*#.H.H.H.&.%.H.o@i.i.=+l.z#@+c%j.k.%%:*S.v <*w.]@n.[*u o.q./+^*B.r.p.'.}*",
"|*C@A+f@g.;+'*..d+{.c.0+!*1*H.H.H.$.2*2*o@p@p@4+}@Y&A#3*;.n.M t ^.J+s. .4*b.5*L@^+s+^+e+d+0+0@0@-+6*",
",%y.7*n.J+C.8*I+@@Y.I+Z.#.9*&.d.H.2*H.L+0*L+}@q@L.a*4+4+T@@@I+e#!.b*B.f+f+f+^+e+^+d#^.O. +[+O.H%L&c*",
"d*U+e*n@C.C.{.&@I+A.t.f*2*H.#.#.2*H.<.l.1+;.4+N+g*k.l+e#,.p.M.h*i*q.H+Z &@d+0@|+|+$.$.T%[@j*j*j*k*l*",
"m*C@A.{.n*c.`@&@%@o*p*@.%.|+&.2*2*a+j.C@C@k.k+g@m.q*r*R+I+s*).t*;+9+u*e+r@&@v*$.Q.w*u.u.'+'+j*j*x*y*",
"O$z*{.A*{.C.I+..B*9*t Z.&.^.L&H.H.=+p@1+e*C*c%3*g.+@{.d+*&).;+ .9+b.f++@[+w*X#G#T@++T@'+'+v.j*v.J D*",
"E*m m@F*F*m@D Y.p+p+h&G*#*G*H*I*)#J*v.K*L*M*N*O*m@C P*D Q*R*R*S*T*G.U*H V*J J J W*W*x*I.k*W*m$P X*Y*"};
