/* XPM */
static char * floor_xpm[] = {
"50 51 662 2",
"  	c #AFA798",
". 	c #ABA491",
"+ 	c #AEA695",
"@ 	c #B0A997",
"# 	c #ADA695",
"$ 	c #ABA492",
"% 	c #ACA492",
"& 	c #ACA392",
"* 	c #AEA796",
"= 	c #AFA897",
"- 	c #B2AA99",
"; 	c #B3AB99",
"> 	c #B3AC9A",
", 	c #B4AC9A",
"' 	c #B6AE9C",
") 	c #B8B19D",
"! 	c #BAB39F",
"~ 	c #BBB39F",
"{ 	c #BCB3A0",
"] 	c #ADA694",
"^ 	c #ACA594",
"/ 	c #ABA290",
"( 	c #A9A08F",
"_ 	c #A9A18F",
": 	c #ABA190",
"< 	c #AAA291",
"[ 	c #A7A08F",
"} 	c #A69F8E",
"| 	c #B1AA98",
"1 	c #B1AA97",
"2 	c #B5AE9B",
"3 	c #B4AD9A",
"4 	c #B6AF9B",
"5 	c #BCB49F",
"6 	c #B6AE9B",
"7 	c #BBB29D",
"8 	c #BAB29E",
"9 	c #BCB39E",
"0 	c #B7AF9B",
"a 	c #ADA693",
"b 	c #A39C8C",
"c 	c #A49B8B",
"d 	c #A29B8B",
"e 	c #A29B8A",
"f 	c #A29A88",
"g 	c #A7A097",
"h 	c #A59C80",
"i 	c #A29878",
"j 	c #A49B7C",
"k 	c #A19879",
"l 	c #A09677",
"m 	c #A19778",
"n 	c #A29879",
"o 	c #A3987A",
"p 	c #A99E80",
"q 	c #ACA081",
"r 	c #ACA182",
"s 	c #ACA183",
"t 	c #ABA183",
"u 	c #ADA485",
"v 	c #B2A888",
"w 	c #B7AD8B",
"x 	c #B5AB89",
"y 	c #B9AE8D",
"z 	c #ACA382",
"A 	c #A19779",
"B 	c #9E9576",
"C 	c #9F9576",
"D 	c #9F9577",
"E 	c #9F9477",
"F 	c #9D9374",
"G 	c #9C9374",
"H 	c #A89F80",
"I 	c #A9A082",
"J 	c #AEA585",
"K 	c #B1A786",
"L 	c #AFA686",
"M 	c #AFA586",
"N 	c #B3A987",
"O 	c #B5AB88",
"P 	c #B6AC89",
"Q 	c #B1A785",
"R 	c #AAA080",
"S 	c #998F72",
"T 	c #998F71",
"U 	c #988F72",
"V 	c #978E71",
"W 	c #968D6F",
"X 	c #9F9682",
"Y 	c #A89E84",
"Z 	c #A4997C",
"` 	c #A3997D",
" .	c #A3997B",
"..	c #A49A7C",
"+.	c #A59B7E",
"@.	c #AA9F82",
"#.	c #AAA083",
"$.	c #ADA285",
"%.	c #ADA486",
"&.	c #ADA385",
"*.	c #ACA285",
"=.	c #B0A789",
"-.	c #B5AC8C",
";.	c #B8AE8E",
">.	c #B7AD8D",
",.	c #B8AF8E",
"'.	c #ACA283",
").	c #A1977A",
"!.	c #A1987A",
"~.	c #A0977A",
"{.	c #9F9579",
"].	c #9F9479",
"^.	c #A1987B",
"/.	c #A79E80",
"(.	c #AAA183",
"_.	c #AEA588",
":.	c #AFA687",
"<.	c #B1A789",
"[.	c #B7AC8C",
"}.	c #B2A98A",
"|.	c #B5AC8B",
"1.	c #B5AA8A",
"2.	c #ABA283",
"3.	c #AFA485",
"4.	c #AAA081",
"5.	c #9A9175",
"6.	c #9B9176",
"7.	c #9B9276",
"8.	c #9B9175",
"9.	c #999074",
"0.	c #988E72",
"a.	c #A09784",
"b.	c #A59D82",
"c.	c #A2977A",
"d.	c #A2987B",
"e.	c #A2997B",
"f.	c #A69B7E",
"g.	c #AAA082",
"h.	c #AA9E81",
"i.	c #ADA284",
"j.	c #ACA284",
"k.	c #B1A88A",
"l.	c #B2AA8B",
"m.	c #B3AB8B",
"n.	c #BBB090",
"o.	c #B3A98A",
"p.	c #A3987C",
"q.	c #A0967A",
"r.	c #9F9679",
"s.	c #9E9479",
"t.	c #A39A7D",
"u.	c #AAA184",
"v.	c #AEA688",
"w.	c #B0A788",
"x.	c #B6AC8C",
"y.	c #B1A889",
"z.	c #B8AE8D",
"A.	c #B0A586",
"B.	c #A89E81",
"C.	c #9E9478",
"D.	c #9A9275",
"E.	c #A69C7E",
"F.	c #A99F81",
"G.	c #ADA386",
"H.	c #ACA384",
"I.	c #B4AC8D",
"J.	c #B7AE8E",
"K.	c #BAB08F",
"L.	c #A1977B",
"M.	c #9E9678",
"N.	c #A9A083",
"O.	c #A99F82",
"P.	c #AEA587",
"Q.	c #B0A88A",
"R.	c #AFA688",
"S.	c #BAB08E",
"T.	c #ABA083",
"U.	c #A49A7E",
"V.	c #9C9277",
"W.	c #A09884",
"X.	c #AAA186",
"Y.	c #ABA184",
"Z.	c #ADA586",
"`.	c #ACA386",
" +	c #B0A687",
".+	c #AFA788",
"++	c #B3AB8C",
"@+	c #B5AD8D",
"#+	c #C0B694",
"$+	c #B9B190",
"%+	c #BEB492",
"&+	c #BBB291",
"*+	c #B4AB8C",
"=+	c #A69D7F",
"-+	c #A3997C",
";+	c #9F977A",
">+	c #A79D81",
",+	c #ADA587",
"'+	c #AFA789",
")+	c #AEA689",
"!+	c #B5AC8D",
"~+	c #B5AB8B",
"{+	c #A59A7E",
"]+	c #9C9377",
"^+	c #9D9377",
"/+	c #9D9378",
"(+	c #9B9275",
"_+	c #999073",
":+	c #B1A88D",
"<+	c #ABA284",
"[+	c #ACA485",
"}+	c #ACA385",
"|+	c #B5AB8C",
"1+	c #BCB291",
"2+	c #B4AB8D",
"3+	c #B9AF8F",
"4+	c #BFB593",
"5+	c #BFB493",
"6+	c #BEB592",
"7+	c #BCB391",
"8+	c #A3987B",
"9+	c #A59B7F",
"0+	c #B0A889",
"a+	c #B6AD8C",
"b+	c #B3A989",
"c+	c #A59C7F",
"d+	c #9D9478",
"e+	c #9D9477",
"f+	c #A19985",
"g+	c #B0A88C",
"h+	c #AEA485",
"i+	c #C0B593",
"j+	c #BEB392",
"k+	c #B6AC8D",
"l+	c #C2B794",
"m+	c #C3B894",
"n+	c #BBB190",
"o+	c #AA9F81",
"p+	c #A89F81",
"q+	c #B3AA8B",
"r+	c #9E9579",
"s+	c #9C9378",
"t+	c #9C9478",
"u+	c #9C9376",
"v+	c #A79F8B",
"w+	c #AEA385",
"x+	c #B7AD8E",
"y+	c #BAB090",
"z+	c #C5BA96",
"A+	c #B7AF8F",
"B+	c #B9B091",
"C+	c #C5B996",
"D+	c #C6BB96",
"E+	c #BFB393",
"F+	c #B0A587",
"G+	c #A19679",
"H+	c #A49A7D",
"I+	c #A69C80",
"J+	c #B1A98A",
"K+	c #B6AD8D",
"L+	c #BCB290",
"M+	c #B6AB8A",
"N+	c #B1A787",
"O+	c #9E9578",
"P+	c #A29A7D",
"Q+	c #A59D8A",
"R+	c #B9B194",
"S+	c #C3B895",
"T+	c #BDB292",
"U+	c #C9BE99",
"V+	c #C3B996",
"W+	c #C4B996",
"X+	c #C4BA96",
"Y+	c #C7BA98",
"Z+	c #ADA384",
"`+	c #A2997C",
" @	c #A79D80",
".@	c #BDB390",
"+@	c #9D9578",
"@@	c #A2997D",
"#@	c #A49B7E",
"$@	c #AAA28D",
"%@	c #BBB295",
"&@	c #C1B793",
"*@	c #C3B995",
"=@	c #C6BB98",
"-@	c #BDB392",
";@	c #C7BC97",
">@	c #C4B995",
",@	c #C8BB97",
"'@	c #C6BA96",
")@	c #BFB391",
"!@	c #AEA384",
"~@	c #A79D7F",
"{@	c #A39A7C",
"]@	c #A0987B",
"^@	c #A69D80",
"/@	c #B9B08F",
"(@	c #B6AE8D",
"_@	c #BBAF8E",
":@	c #A39A7E",
"<@	c #9D9579",
"[@	c #9F967A",
"}@	c #A79E81",
"|@	c #A89F82",
"1@	c #A69E80",
"2@	c #AFA993",
"3@	c #BDB397",
"4@	c #BDB290",
"5@	c #BFB694",
"6@	c #C2B694",
"7@	c #BFB492",
"8@	c #C0B592",
"9@	c #BBB08D",
"0@	c #B4A989",
"a@	c #A69C7F",
"b@	c #B2A98B",
"c@	c #B9AE8F",
"d@	c #A0977B",
"e@	c #9D9479",
"f@	c #A2987C",
"g@	c #A9A184",
"h@	c #B2AB95",
"i@	c #C3B89A",
"j@	c #BFB491",
"k@	c #B9AF8E",
"l@	c #B4AC8C",
"m@	c #A1997B",
"n@	c #A1997A",
"o@	c #A0987A",
"p@	c #A89E80",
"q@	c #AEA486",
"r@	c #AFA588",
"s@	c #ABA386",
"t@	c #ACA487",
"u@	c #AEA687",
"v@	c #B4AA8B",
"w@	c #B0A887",
"x@	c #B3AB95",
"y@	c #C1B598",
"z@	c #A59B7D",
"A@	c #A69D7E",
"B@	c #A59C7E",
"C@	c #A59A7C",
"D@	c #B1A78A",
"E@	c #A2987D",
"F@	c #A49B7D",
"G@	c #AAA285",
"H@	c #B3AA8A",
"I@	c #B1A887",
"J@	c #B6AF98",
"K@	c #B5AC90",
"L@	c #A49A7B",
"M@	c #B2A88A",
"N@	c #B1AA8B",
"O@	c #9E9679",
"P@	c #A79F82",
"Q@	c #B4AB8B",
"R@	c #B6AB8D",
"S@	c #B0A790",
"T@	c #A79D83",
"U@	c #A39A7B",
"V@	c #A1967A",
"W@	c #B7AD8C",
"X@	c #B7AE8D",
"Y@	c #BBB18F",
"Z@	c #AEA483",
"`@	c #ADA48F",
" #	c #AAA085",
".#	c #A49B7B",
"+#	c #AFA587",
"@#	c #B0A688",
"##	c #B3A98B",
"$#	c #B2AA8C",
"%#	c #C2B793",
"&#	c #B5AB8A",
"*#	c #ACA486",
"=#	c #B8AF8D",
"-#	c #BAAF8E",
";#	c #BBB18E",
">#	c #B8AD8D",
",#	c #A09885",
"'#	c #A9A084",
")#	c #A39A7A",
"!#	c #B4AA8C",
"~#	c #B3AA8C",
"{#	c #BAB190",
"]#	c #B8B08F",
"^#	c #BDB391",
"/#	c #BFB392",
"(#	c #A1987C",
"_#	c #AEA789",
":#	c #C0B591",
"<#	c #BCB18F",
"[#	c #A9A081",
"}#	c #9D9277",
"|#	c #9C9275",
"1#	c #A29986",
"2#	c #AA9F84",
"3#	c #B5AE8E",
"4#	c #B8AF90",
"5#	c #BDB291",
"6#	c #BFB592",
"7#	c #C1B693",
"8#	c #B8AE8C",
"9#	c #A09679",
"0#	c #C1B692",
"a#	c #ADA283",
"b#	c #9E9378",
"c#	c #9B9274",
"d#	c #ACA288",
"e#	c #A89D7F",
"f#	c #B4AD8D",
"g#	c #BCB292",
"h#	c #BCB090",
"i#	c #C2B693",
"j#	c #B0A686",
"k#	c #9B9277",
"l#	c #AEA58B",
"m#	c #B0A588",
"n#	c #BCB392",
"o#	c #BEB493",
"p#	c #C1B694",
"q#	c #C0B492",
"r#	c #BEB491",
"s#	c #B6AB8B",
"t#	c #B1A788",
"u#	c #9E9377",
"v#	c #A29A87",
"w#	c #B0A88D",
"x#	c #AEA386",
"y#	c #B5AE8D",
"z#	c #BEB593",
"A#	c #BBB391",
"B#	c #BBB290",
"C#	c #BAB18F",
"D#	c #B9AD8D",
"E#	c #B3A889",
"F#	c #AAA182",
"G#	c #A09779",
"H#	c #B7AF8D",
"I#	c #BCB08E",
"J#	c #9C9375",
"K#	c #B3AA8F",
"L#	c #AEA484",
"M#	c #B2AA8A",
"N#	c #C2B895",
"O#	c #B7AF8E",
"P#	c #C4B895",
"Q#	c #BAB18E",
"R#	c #B9B08E",
"S#	c #9C9477",
"T#	c #9E9577",
"U#	c #A69E8A",
"V#	c #B2A989",
"W#	c #B9B090",
"X#	c #A59A7D",
"Y#	c #A59D7F",
"Z#	c #B6AE8E",
"`#	c #9F9478",
" $	c #A7A08C",
".$	c #B5AD92",
"+$	c #BEB291",
"@$	c #BEB391",
"#$	c #A1967B",
"$$	c #A9A18D",
"%$	c #B9B094",
"&$	c #C0B693",
"*$	c #C5BA95",
"=$	c #A79E7F",
"-$	c #AA9F83",
";$	c #AEA586",
">$	c #BBB08F",
",$	c #A3997E",
"'$	c #A9A08D",
")$	c #B7AF93",
"!$	c #C5B995",
"~$	c #AFA486",
"{$	c #A49C7E",
"]$	c #A79C7F",
"^$	c #A49B88",
"/$	c #BAB296",
"($	c #C4B894",
"_$	c #B1A88B",
":$	c #BCB28F",
"<$	c #9F9678",
"[$	c #9D9476",
"}$	c #ABA48F",
"|$	c #BEB698",
"1$	c #C3B794",
"2$	c #A59C7D",
"3$	c #A89D80",
"4$	c #AEA691",
"5$	c #BCB397",
"6$	c #BCB08F",
"7$	c #B2AB8C",
"8$	c #B6AD8E",
"9$	c #B9AF8D",
"0$	c #AEA591",
"a$	c #BEB497",
"b$	c #A29A7C",
"c$	c #AFA892",
"d$	c #C1B799",
"e$	c #ABA082",
"f$	c #B8AD8C",
"g$	c #ABA385",
"h$	c #B1AA94",
"i$	c #C1B79A",
"j$	c #B0A786",
"k$	c #B8AF8F",
"l$	c #BDB491",
"m$	c #B8AE8F",
"n$	c #B5AC8E",
"o$	c #B2A889",
"p$	c #A4997D",
"q$	c #A89F83",
"r$	c #ADA487",
"s$	c #B3AB96",
"t$	c #B8AF93",
"u$	c #BAAF90",
"v$	c #BEB38F",
"w$	c #BFB490",
"x$	c #B5AA89",
"y$	c #A8A082",
"z$	c #B1A888",
"A$	c #B7AE98",
"B$	c #A2987A",
"C$	c #B7AD8F",
"D$	c #BEB390",
"E$	c #BBB08E",
"F$	c #B2A788",
"G$	c #B6AC8A",
"H$	c #B7AF98",
"I$	c #B2A787",
"J$	c #ABA285",
"K$	c #B0A787",
"L$	c #B8B098",
"M$	c #A69D83",
"N$	c #A99E81",
"O$	c #B7AC8D",
"P$	c #A79D7E",
"Q$	c #A9A182",
"R$	c #B4AC94",
"S$	c #C1B593",
"T$	c #AFA689",
"U$	c #B4AA88",
"V$	c #B6AE97",
"W$	c #AA9E85",
"X$	c #BCB191",
"Y$	c #C2B795",
"Z$	c #AAA283",
"`$	c #B6AC8B",
" %	c #A49C88",
".%	c #9E9477",
"+%	c #A19986",
"@%	c #AFA68B",
"#%	c #AFA889",
"$%	c #B4AA8A",
"%%	c #ABA081",
"&%	c #9A9174",
"*%	c #B2A88D",
"=%	c #C6BC97",
"-%	c #BCB190",
";%	c #9D9376",
">%	c #AFA58B",
",%	c #C6BB97",
"'%	c #BDB28F",
")%	c #ACA184",
"!%	c #ABA185",
"~%	c #B0A78A",
"{%	c #BDB190",
"]%	c #9C9276",
"^%	c #C7BB98",
"/%	c #A89D82",
"(%	c #B9AE8E",
"_%	c #B7AC8B",
":%	c #AAA28E",
"<%	c #B8B093",
"[%	c #ACA084",
"}%	c #ADA286",
"|%	c #BAAF8F",
"1%	c #A49C7F",
"2%	c #A0977C",
"3%	c #9F9578",
"4%	c #ADA590",
"5%	c #C1B794",
"6%	c #A4997E",
"7%	c #ACA185",
"8%	c #B1A98B",
"9%	c #9F957A",
"0%	c #B0A894",
"a%	c #B9AF94",
"b%	c #ABA084",
"c%	c #BCB390",
"d%	c #A09579",
"e%	c #A0957A",
"f%	c #ABA384",
"g%	c #ABA28E",
"h%	c #BFB698",
"i%	c #A2977C",
"j%	c #ACA286",
"k%	c #AAA084",
"l%	c #B2A88B",
"m%	c #A49B7F",
"n%	c #A0967B",
"o%	c #AAA284",
"p%	c #ACA484",
"q%	c #B2AA95",
"r%	c #A79F80",
"s%	c #A99F83",
"t%	c #AEA487",
"u%	c #B6AD96",
"v%	c #A69B80",
"w%	c #A09678",
"x%	c #9F9677",
"y%	c #A99F80",
"z%	c #ABA182",
"A%	c #ABA282",
"B%	c #B3A988",
"C%	c #B3AA89",
"D%	c #B7AE8B",
"E%	c #BCB18E",
"F%	c #B5AA88",
"G%	c #A89E7E",
"H%	c #A09577",
"I%	c #A19678",
"J%	c #A29678",
"K%	c #9E9475",
"L%	c #A2997A",
"M%	c #ACA383",
"N%	c #ADA585",
"O%	c #B5AB87",
"P%	c #B7AF96",
"Q%	c #B1AA9B",
"R%	c #AEA694",
"S%	c #B1A998",
"T%	c #B1A997",
"U%	c #B2AA98",
"V%	c #B3AB9A",
"W%	c #B4AD9C",
"X%	c #B7B09E",
"Y%	c #B6B09D",
"Z%	c #B9B29F",
"`%	c #C2B9A3",
" &	c #BEB6A3",
".&	c #C2B9A4",
"+&	c #ACA593",
"@&	c #A9A290",
"#&	c #A9A291",
"$&	c #ABA392",
"%&	c #A9A190",
"&&	c #A8A18F",
"*&	c #ACA493",
"=&	c #B4AD9B",
"-&	c #B4AE9A",
";&	c #B3AD9A",
">&	c #B8B09D",
",&	c #B5AD9A",
"'&	c #BDB4A0",
")&	c #BCB39F",
"!&	c #B4AC98",
"~&	c #B2ABA0",
"  . + @ # $ % & * = - ; > , > , ' ) ! ~ { ] ^ / ( _ : < [ } & | 1 2 3 4 5 2 6 7 8 9 0 a b c d e f g ",
"h i j k l m n o p q r r s s t u v w x y z A B C D E l F G k H I J u K w L M N O P Q R S T S U V W X ",
"Y Z `  ... .+.@.#.$.%.&.$.*.=.-.;.>.>.,.'.).). .!.~.{.].^./.(._.:.<.[.}.}.|.1.2.3.4.5.6.7.8.5.9.0.a.",
"b.c.d.e.f.+.g.h.t &.&.i.j.k.l.m.;.-.n.o.p.e.q. .~.~.r.s.t.u.(.v.w.x.}.y.z.A.B.C.d.6.D.7.7.7.7.5.U a.",
"b. .E.F.t G.&.$.$.&.i.H.y.I.l.,.J.K.>.E.L.r.Z r.r.r.M.q.N.O.P.Q.>.:.R.S.T.U.V.V.C.7.7.7.7.7.7.5.S W.",
"X...$.Y.Z.%.%.%.`. +.+++@+#+$+%+&+*+=+d.~.-+;+r.r.r.~.>+N.,+'+>.)+R.!+~+{+]+^+/+]+]+7.7.7.7.7.(+_+a.",
":+g.<+%.[+%.}+R.|+1+2+3+4+5+6+7+3+j.d.).8+).~.r.r.^.9+#.#.%.0+v.'+a+b+c+d+d+d+e+^+]+]+7.]+^+7.7._+f+",
"g+h+u u [+ +-.i+j+k+;.l+m+%+n+v o+-+L. .d.~.~.~.~.^.-+p+u..+q+*+a+y E.C.r+d+C.C.^+]+d+]+s+]+^+t+u+v+",
"g+w+y.x+y+z+A+B+C+x+D+z+E+F+F+d.L.^.-+).).G+H+L.` ~.I+*.R.J+K+L+M+N+O+d+d+r+q.d+^+/+s+d+s.{.r+P+t.Q+",
"R+S+$+T+U+V+W+X+D+Y+#+i+Z+%.H+f.-+`+^.^.).H+ @H+-+p+<+%.J+@+.@K.y d++@r+s.{.d+d+^+^+r+L.@@U.c+#@+.$@",
"%@&@*@=@-@;@>@,@'@)@z.!@~@ .e.{@^.^.^.]@`+^@-+t.=+%.P.j.*+/@(@_@).{.{.r.:@d+d+d+<@[@:@}@9+>+}@|@1@2@",
"3@4@5@L+6@7@8@9@0@F.a@-+..-+`+]@^.~.^.+.a@c+ @u R.=.b@|+!+c@1+ @r+q.d@L.O+d+d+e@f@a@}@|@}@u.g@.+J h@",
"i@j@S.k@y l@'.B.F.a@-+{@m@e.n@o@~.=+p@F.B.<+q@0+J+b@b@*+-.n.r@d@).L.d@{.O+O+e@L.H+|@|@}+s@t@u@v@w@x@",
"y@S.|.Z+z@A@z@z@B@-+d.-+e.C@=+ @F. @B. @&.k.}.D@l.l.k.*+7@n+/.{.~.E@{.{.O+O+f@F@|@G@P.P.4@.+}.H@I@J@",
"K@L@e.e.e.j z@e.-+..f.t *.T.Y.}+}+P.k.k.q+q+M@l.N@J+|+i+K.h+O+O@q.r.{.{.O+;+t.P@G@R.R.k@Q@n+R@0@M+S@",
"T@U@{@{@{@j F@~@Y.&.q@*.G.Y.0+}.}.}.l.q+q+++++l@,.J.8@n+v V@{.q.r.r.r.{.L.L.B.}+r@R.W@X@Y@!+S.W@Z@`@",
" #.#{@{@{@=+j.F++#@#+#w.k.##v@k.}.*+I.++I.++$#%+%#%+H@&#L.r.r.q.q.r.r.].t.B.*#v.r@=#Y@-#;#>#Z+~@(+,#",
"'#)#e.e.I q@+#<.@#*+!#*+!+!+*+*+~#!+I.{#]#@+^#/#i+-.g.F@r.~.r.`+q.r.r.L.(#N.g@_#S.n+:#<#[#L.r+}#|#1#",
"2#U@{@g.+#@#<.q+!+3#I.n+,.4#K+,.n+K+S+J.5#%+6#7#8#q@f@9#~.~.^.U.q.r.`+^.1@}+.+Y@y+0#<#a#]./+s.b#c#1#",
"d#e#j.@#@#M@q+f#/@%+7+%+^#/@{#y+y+7+g#7@1+%+Y@s u ~.~.).).^.{+c+O+~.^.I+ @R.3+h#i#Y@j#k#r+` C.C.|#1#",
"l#&.+#m###@+I.n#l+&+o#^#3+p#^#Y@Y@i+q#r#s#t#[#L.~.^.).d.p.9+}@a@~.^.@@c+u /@J.K.8@M+f@L.-+<@u#C.(+v#",
"w#3.x#b@y#z#y+#+-@A#^#B#C#8@D#E#h+Z+!@F#+.).~.`+-+`+).H+a@B. @{+).G#U.`.,.H#C#^#I#t.[@d@r+r+C.]+J#Q+",
"K#L#M#@+N#O#@+{#i+z+P#>#O.e#+.H+e.`+ .-+d.d.Z ^.^.^.`+ @#.B.I+9+~.c+,+k@Q@Q#R#L+F@S#s.C.t+d+^+V.T#U#",
":+V#@+@+(@W#1+%+W+b+B@-+f@a@-+X#-+e.e.e.^.^.^.^.^.t.B.Y.Y.#.N.` Y#J+Z#~#0+K+[.f@+@;+).d.L.d+^+`#). $",
".$K+Z#{#]#B#+$@$a#z@{@{@-+-+-+-+e.e.e.m@^.^.^.^.`+^@T.Y.p+t G.v.M#!+q+_.@+4@E.#$^.).d.L.O+d+u#(#`+$$",
"%$K+W#J.&$*$&#=+ @=$F@{@-+-+-+-+e.-+e.E.F@t.d.]@H+O.-$G.*.;$k.b@y.l@0+b+>$F.].` ).d.L.<@d+d+s.,$~.'$",
")$b+1+V+!$~${@e.~@{${@{@-+-+-+H++. @p+]$ @B.+.u.*.G.R.t +#k.b@b@y.0+X@6# +{.].).8+d.r+d+d+s.O+` ).^$",
"/$%+W+($'.e.e.B@F@{@{@-+-+-+p@ @(.Y. @&.&.*.k.k.R.v.++J+l.l.b@b@_$X@8@:${@{.q.p.<$O+O+d+d+d+r+r+[$}$",
"|$@$1$t#e.e.2$z@{@{@{@-+d.a@}@<+R.=.k.*+++++2+I.++!+++!+n+b@b@R#>.8@x.3${.O+).q.O+O+O+d+d@{./+^+..4$",
"5$:#6$=+e.F@..F@H+{@{@-+a@p@@#}.J+*+*+~#7$++M@++++,.8$W#q+l.K+K+4+9$+.{.O+r.{.{.O+O+[@~.~.]+e+` 2$0$",
"a$Y@b+b${@{@H+/.+.z@F.<+q@##q+!+!#~#-.1+K+I.~+++8$l.*+x+!+3+{#X@Z+[#O+r.r.r.{.q.[@f@` r+[@L.#@p@A@c$",
"d$-#p+..e.t.B.g.e$+#@#}.*+!+!+q+{#!+B#3+,.K.K+C#r#L+%+z#6#f$x. @).r.O@r.r.[@L.(#@@#@^.`+c+|@N.g$<+h$",
"i$j$e.e.z@T.&.$.@#<.y.!+!+:.7#,.k$l$@+m$n$m$7#8@7#l+i+)@>.o$>+p$d.O@r.r.r.[@`++.`+I+d.9+q$q$`.r$Z.s$",
"t$k e.e.Y.x#q@m#M@!+!+!+!+u$q+-.!+K+&+5#&$>@8@'@v$w$x$o.+.F@9#p.r.r.r.r.r.~.+.c+^@c+|@y$#.%.`.v.z$A$",
" #B${@=+&.%.r@M@!+!+!+!+2+C$!+^#^#l+D$E$z.&#F$j#F.p@t.9#F@~.).~.r.r.r.r.L.` +.{@}@(.u.%.P.R.R.k.G$H$",
"T@U@E.G.+#R.}.!+!+!+2+*+3+o#~+r#.@I$A.c++.-+F@!.`+d.L.-+^.~.~.r.O+{.q.~.^.H+3$}@J$J$I R.R.R.'+H@K$L$",
"M$j N$q@@#<.}.@+I.!+y+l+N#b+O$e#P$L.`+~.]@^.^.`+e.d.).!.;+^.).9#q.9+@@Q$#.u.`.G.%.R.P.R.R.w.~+o.&#R$",
"Y P$$.@#Y.M@@+&+;.J.S$S$t -+`+-+d.^.^.^.^.^.-+^.d.).q.r.d.Z }@Z.}+}+}+j.J$r$T$'+'+R.R.R.R._.##>.U$V$",
"W$4.+#<.}.8$X$n+Y$@$A.#@d.d.{@{@^.^.^.^.(#-+^.~.).d.=+H+t @#:.;$P.*#Z.0+Z$0+0+,+T$R.R.R.R.y.S.`$J  %",
"d#Z+@#@#!+1+1+Y$k@a#d.!.e.-+{@^.^.]@:@f.#@U.).B@(.u k.w.<.=.w.0+J+J+J+J+0+0+'+s@v.P.=.<.<+k@f$&..%+%",
"@%M @#}.^#y+*@[.]$d.e.e.e.d.^.]@~.E.p@#@{@).p@:.0+<.k.M@M@J+J+J+J+J+J+0+#%.+*+l.b@w.J.$%s#%%t [@&%+%",
"*%q@M@W#k$=%y  @-+m@e.e.^.^.~.H+@.g.E.z@O.&.:.=.k.<.b@b@R.%.J+!#J+Q.0+0+!+k.;.>$k@-%Q@f$4.;%C.7.&%+%",
">% +b@J.,%'% @p$d.{@^.^.^.^.}@)%*.*.!%*.`.+#=.J+~%b@~#k+|+++J+l.^#a+>.n+n+j@{%k@.@y. @#@]%C.]%d+|#U#",
"K@Q@/@^%r#a@H+d.{+/.]@f@t./%$.G.G.G.*.&.G.=.l.l.*+-.X@++@$m.;.{#(%S.v _%x.`$o.!@u p.r.^+]%C.s.q.!.:%",
"<%k@z+6@j.-+p$+.c+^.e.9+!%[%G.G.G.%.}%}%=.b@b@3+/@^#Y@|%,.o.M t (.` t. .1%9#2%3%]+r+]+d+c+9+}@}@=+4%",
"%$z.5%o.` d.6%H+ @..H+Y.$.7%*.g.G.}%G.J+8%J+/@c@K.6#3+3+u@ @H+F@{.9%C.e+e+e+]+d+]+{@(.N.`.<+N.g$Z$0%",
"a%S+5#a@d.d.^.#@H+B.u.b%}%G.$.$.}%G.}.-.|+,.3+L+c%;.k+F@).q.L.d%e%r.G+Z #@c+}@}+}+%.%.r$^@*#*#*#f%g%",
"h%k@B.^.i%e.B@#@@@j%k%#.&.}+*.}%}%0+m.k@k@;.j+7@n.l%m%P+H+<$~.n%-+8+c.d+d@#@o%%.P.J$v.v.,+,+*#*#p%q%",
"K#r%^.o@^.d.H++.s%7%t Y.*.(.Z$G.G.*+b@|+5#m$@$|%j.`+^.c+B$~.-+ .8+9#e+`+<+J$t%+#u@.+u@,+,+w.*#w.J u%",
"v%m w%x%x%w%D ..o+o+P$y%%%y%z%A%I@B%w.C%D%E%F%G%w%C m D H%I%I%J%K%c#L%H M%J J J N%N%p%H.f%N%j#P O%P%",
"Q%$ % % $ $ R%S%| T%S%U%1 1 V%W%X%Y%Z%`% &.&] +&@&#&@&@&$&< $&%&&&*&S%=&4 2 2 -&-&;&> >&,&'&)&9 !&~&"};
