/* XPM */
static char * wall_xpm[] = {
"50 50 797 2",
"  	c #899AAF",
". 	c #8A9BAE",
"+ 	c #9BA5B9",
"@ 	c #BFCADC",
"# 	c #BBCDD9",
"$ 	c #C3CCD7",
"% 	c #C8C8D4",
"& 	c #C6C9D5",
"* 	c #C6CBD8",
"= 	c #C2CAD9",
"- 	c #C3CBDA",
"; 	c #C4CAD9",
"> 	c #C6CAD7",
", 	c #C5CAD6",
"' 	c #C3CAD7",
") 	c #C3CBD8",
"! 	c #C3CCDA",
"~ 	c #C3CBD7",
"{ 	c #C3CDD7",
"] 	c #C6CBD5",
"^ 	c #C7CAD4",
"/ 	c #C5CBD7",
"( 	c #C2CCDA",
"_ 	c #C1CEDB",
": 	c #C1CDD8",
"< 	c #C2CCD7",
"[ 	c #C5CBD8",
"} 	c #C5CDD9",
"| 	c #C4CDD9",
"1 	c #C5CCD9",
"2 	c #C4CAD7",
"3 	c #C4CAD6",
"4 	c #C3CAD6",
"5 	c #C4CBD7",
"6 	c #C4CCD8",
"7 	c #C2CBD9",
"8 	c #C0CDD9",
"9 	c #BFCDD8",
"0 	c #BDCCD8",
"a 	c #BDCCDB",
"b 	c #95A4B6",
"c 	c #8C9CB0",
"d 	c #929CAB",
"e 	c #899BB2",
"f 	c #8B9BB2",
"g 	c #96A5B9",
"h 	c #BECBDE",
"i 	c #BFCCDC",
"j 	c #C0CCDB",
"k 	c #C1CCDB",
"l 	c #BFCADA",
"m 	c #C0CBDB",
"n 	c #C1CBDD",
"o 	c #C2CCDE",
"p 	c #C2CDDD",
"q 	c #C1CCDD",
"r 	c #C1CCDC",
"s 	c #C0CDDC",
"t 	c #C1CDDD",
"u 	c #BFCCDA",
"v 	c #BFCCDB",
"w 	c #C0CCDC",
"x 	c #BFCDDD",
"y 	c #BCCCDB",
"z 	c #BDCDDD",
"A 	c #BBCADE",
"B 	c #93A1BA",
"C 	c #8B99B4",
"D 	c #8F99B0",
"E 	c #7989A3",
"F 	c #7A8AA3",
"G 	c #8795AD",
"H 	c #B0BCD2",
"I 	c #B1BED2",
"J 	c #B2BDD0",
"K 	c #B2BED0",
"L 	c #B0BDCF",
"M 	c #B1BED0",
"N 	c #AEBACE",
"O 	c #ADB9CF",
"P 	c #AEB9D0",
"Q 	c #AEB9D1",
"R 	c #ADBACE",
"S 	c #ACBACE",
"T 	c #ABBACD",
"U 	c #ABB9CD",
"V 	c #B1BFD4",
"W 	c #AFBED1",
"X 	c #B0BFD4",
"Y 	c #ADBBD4",
"Z 	c #7F8DA9",
"` 	c #7985A2",
" .	c #7D839A",
"..	c #475674",
"+.	c #475672",
"@.	c #586680",
"#.	c #8694AD",
"$.	c #8995AD",
"%.	c #8894AC",
"&.	c #8895AC",
"*.	c #8896AE",
"=.	c #8796AD",
"-.	c #77859C",
";.	c #717F98",
">.	c #717F9A",
",.	c #717E9D",
"'.	c #717F9C",
").	c #72819B",
"!.	c #71819A",
"~.	c #71809A",
"{.	c #708099",
"].	c #707F99",
"^.	c #70809A",
"/.	c #71819B",
"(.	c #71819C",
"_.	c #707F9B",
":.	c #7987A1",
"<.	c #8896B0",
"[.	c #8795AF",
"}.	c #8796AE",
"|.	c #8896B1",
"1.	c #8593B0",
"2.	c #455273",
"3.	c #3A4467",
"4.	c #40425C",
"5.	c #475474",
"6.	c #475573",
"7.	c #576481",
"8.	c #8593AE",
"9.	c #8995B0",
"0.	c #8894AE",
"a.	c #8895B0",
"b.	c #8694B0",
"c.	c #8594AE",
"d.	c #77859F",
"e.	c #72809A",
"f.	c #707E9A",
"g.	c #707E9E",
"h.	c #707D9E",
"i.	c #707F9C",
"j.	c #6F7E9B",
"k.	c #70809B",
"l.	c #6E7F9A",
"m.	c #6F809C",
"n.	c #7180A0",
"o.	c #707F9F",
"p.	c #6F7C9B",
"q.	c #7885A1",
"r.	c #8593AD",
"s.	c #8592B1",
"t.	c #455174",
"u.	c #394166",
"v.	c #404059",
"w.	c #475473",
"x.	c #485573",
"y.	c #8694B1",
"z.	c #8795B0",
"A.	c #8694AF",
"B.	c #7B88A5",
"C.	c #7C88A7",
"D.	c #7B89A4",
"E.	c #818EA6",
"F.	c #7F8CA3",
"G.	c #808DA6",
"H.	c #7784A0",
"I.	c #71809C",
"J.	c #70809C",
"K.	c #6F7F9B",
"L.	c #6F7E9A",
"M.	c #72819D",
"N.	c #6F7F99",
"O.	c #6F8099",
"P.	c #6D7C9C",
"Q.	c #677495",
"R.	c #697594",
"S.	c #77829D",
"T.	c #929EB8",
"U.	c #909EB6",
"V.	c #909FB6",
"W.	c #8594AB",
"X.	c #8593AF",
"Y.	c #455272",
"Z.	c #384264",
"`.	c #3E4157",
" +	c #495472",
".+	c #495572",
"++	c #8492AE",
"@+	c #808EA9",
"#+	c #45516F",
"$+	c #3D4769",
"%+	c #434E6A",
"&+	c #AAB6CB",
"*+	c #BDC9DC",
"=+	c #BAC6DA",
"-+	c #95A1B8",
";+	c #7885A0",
">+	c #7685A0",
",+	c #74839D",
"'+	c #73829D",
")+	c #7786A1",
"!+	c #7785A0",
"~+	c #7786A0",
"{+	c #7787A1",
"]+	c #72829C",
"^+	c #6E7D98",
"/+	c #707F9A",
"(+	c #6F8098",
"_+	c #6E8097",
":+	c #6F809A",
"<+	c #5D6A8A",
"[+	c #3B4768",
"}+	c #3C4664",
"|+	c #6A738B",
"1+	c #BCC7DE",
"2+	c #BAC9DD",
"3+	c #B3C2D6",
"4+	c #8A99AD",
"5+	c #8695AC",
"6+	c #455270",
"7+	c #374362",
"8+	c #3B4256",
"9+	c #475373",
"0+	c #485574",
"a+	c #576482",
"b+	c #808DAB",
"c+	c #3F4C6B",
"d+	c #374364",
"e+	c #3D4864",
"f+	c #B0BBD0",
"g+	c #C0CCDD",
"h+	c #BECADC",
"i+	c #97A3B7",
"j+	c #79869E",
"k+	c #76849F",
"l+	c #707E99",
"m+	c #73819C",
"n+	c #7987A2",
"o+	c #7785A1",
"p+	c #7886A2",
"q+	c #74829E",
"r+	c #6F7D99",
"s+	c #717F9B",
"t+	c #5C6A89",
"u+	c #384565",
"v+	c #384460",
"w+	c #69738A",
"x+	c #BFCBE0",
"y+	c #C1CEE0",
"z+	c #B8C7D9",
"A+	c #8A99AE",
"B+	c #8695AD",
"C+	c #8492AF",
"D+	c #465171",
"E+	c #384363",
"F+	c #3C4258",
"G+	c #465373",
"H+	c #485575",
"I+	c #576483",
"J+	c #8592B2",
"K+	c #7F8CAB",
"L+	c #414F6F",
"M+	c #384666",
"N+	c #404C69",
"O+	c #A7B1C9",
"P+	c #B7C1D6",
"Q+	c #B8C3D8",
"R+	c #919DB2",
"S+	c #7A879F",
"T+	c #75839E",
"U+	c #7886A1",
"V+	c #7886A3",
"W+	c #7785A2",
"X+	c #73819E",
"Y+	c #707E9B",
"Z+	c #71809D",
"`+	c #5D6C8A",
" @	c #3A4766",
".@	c #394664",
"+@	c #66708B",
"@@	c #B6C2D9",
"#@	c #B7C4D7",
"$@	c #B3C0D5",
"%@	c #8999B0",
"&@	c #8696B0",
"*@	c #8390AF",
"=@	c #465073",
"-@	c #394463",
";@	c #3D4159",
">@	c #53607F",
",@	c #7380A0",
"'@	c #596688",
")@	c #556285",
"!@	c #576283",
"~@	c #545E7A",
"{@	c #525B75",
"]@	c #535C75",
"^@	c #6D7992",
"/@	c #7684A0",
"(@	c #72809D",
"_@	c #75849F",
":@	c #7686A0",
"<@	c #7685A2",
"[@	c #6B7A9A",
"}@	c #566385",
"|@	c #576486",
"1@	c #566283",
"2@	c #525D78",
"3@	c #525D74",
"4@	c #56627A",
"5@	c #74839F",
"6@	c #727F9F",
"7@	c #434D6E",
"8@	c #3C4259",
"9@	c #515E7E",
"0@	c #707D9D",
"a@	c #6F7C9C",
"b@	c #5D6B8D",
"c@	c #566589",
"d@	c #5A678A",
"e@	c #424C6E",
"f@	c #3A4465",
"g@	c #677390",
"h@	c #7583A0",
"i@	c #7787A0",
"j@	c #7686A3",
"k@	c #6C799A",
"l@	c #596689",
"m@	c #5A678B",
"n@	c #566386",
"o@	c #394567",
"p@	c #3A4464",
"q@	c #414D6B",
"r@	c #6B7998",
"s@	c #707F9E",
"t@	c #6E7B9B",
"u@	c #434E6E",
"v@	c #394461",
"w@	c #5C6A8B",
"x@	c #59688A",
"y@	c #5B698B",
"z@	c #424D70",
"A@	c #394465",
"B@	c #677493",
"C@	c #7987A3",
"D@	c #7785A3",
"E@	c #6E7B9C",
"F@	c #5B688B",
"G@	c #5A688B",
"H@	c #526083",
"I@	c #394668",
"J@	c #394365",
"K@	c #414D6E",
"L@	c #6E7D9C",
"M@	c #6F7E9D",
"N@	c #6E7B9A",
"O@	c #424D6C",
"P@	c #394362",
"Q@	c #3C415A",
"R@	c #717E9E",
"S@	c #6C7B9A",
"T@	c #6B7B99",
"U@	c #6C7A9A",
"V@	c #6B7698",
"W@	c #6B7697",
"X@	c #6C7896",
"Y@	c #73819D",
"Z@	c #74829D",
"`@	c #7684A1",
" #	c #7582A3",
".#	c #6C7B9B",
"+#	c #6B7A99",
"@#	c #6A7895",
"##	c #6A7593",
"$#	c #6B7796",
"%#	c #717F9E",
"&#	c #707C9C",
"*#	c #6D7F99",
"=#	c #7684A2",
"-#	c #7984A3",
";#	c #7887A0",
">#	c #717E9C",
",#	c #7885A2",
"'#	c #7A85A1",
")#	c #7683A2",
"!#	c #707E9D",
"~#	c #73839E",
"{#	c #7A86A1",
"]#	c #77849F",
"^#	c #424D6D",
"/#	c #394462",
"(#	c #3B425A",
"_#	c #505D7D",
":#	c #6F7D9B",
"<#	c #717F9D",
"[#	c #6E7E98",
"}#	c #7786A2",
"|#	c #7986A2",
"1#	c #6F7E99",
"2#	c #73839D",
"3#	c #7887A1",
"4#	c #75849E",
"5#	c #707E9C",
"6#	c #394363",
"7#	c #3D415A",
"8#	c #4E5B7B",
"9#	c #566383",
"0#	c #7584A0",
"a#	c #74829F",
"b#	c #7482A0",
"c#	c #7481A1",
"d#	c #7483A0",
"e#	c #7584A1",
"f#	c #73829F",
"g#	c #7886A0",
"h#	c #76849E",
"i#	c #7585A0",
"j#	c #404D6F",
"k#	c #3E4059",
"l#	c #525F7F",
"m#	c #596686",
"n#	c #72819E",
"o#	c #7887A3",
"p#	c #384463",
"q#	c #75859F",
"r#	c #404D6E",
"s#	c #3C405A",
"t#	c #7786A3",
"u#	c #7887A4",
"v#	c #3E405B",
"w#	c #7685A1",
"x#	c #6F7F9A",
"y#	c #40415C",
"z#	c #505E7D",
"A#	c #576685",
"B#	c #75839F",
"C#	c #72819C",
"D#	c #73829C",
"E#	c #73829E",
"F#	c #7887A2",
"G#	c #707D9C",
"H#	c #374363",
"I#	c #3D425C",
"J#	c #485474",
"K#	c #475675",
"L#	c #4F5F7D",
"M#	c #6E7E9B",
"N#	c #73809E",
"O#	c #7A86A3",
"P#	c #72809B",
"Q#	c #404D6D",
"R#	c #374464",
"S#	c #3B4159",
"T#	c #475574",
"U#	c #4E5F7D",
"V#	c #707F9D",
"W#	c #71809F",
"X#	c #3A4364",
"Y#	c #413F5A",
"Z#	c #475575",
"`#	c #6D7E9B",
" $	c #6E7D9A",
".$	c #7784A2",
"+$	c #40415F",
"@$	c #465574",
"#$	c #4F607E",
"$$	c #6D7E9A",
"%$	c #72829E",
"&$	c #7686A2",
"*$	c #364467",
"=$	c #3A4665",
"-$	c #354466",
";$	c #374664",
">$	c #76859F",
",$	c #394464",
"'$	c #3B425C",
")$	c #505F7E",
"!$	c #6E7C9B",
"~$	c #73809F",
"{$	c #7986A4",
"]$	c #72809C",
"^$	c #6F7D9A",
"/$	c #7484A0",
"($	c #3B4361",
"_$	c #424155",
":$	c #7785A4",
"<$	c #6F7E9C",
"[$	c #76869F",
"}$	c #6F809B",
"|$	c #434C6D",
"1$	c #3C4261",
"2$	c #414157",
"3$	c #3B4264",
"4$	c #3E415F",
"5$	c #72809E",
"6$	c #71819D",
"7$	c #6E7E99",
"8$	c #3E415E",
"9$	c #444D6E",
"0$	c #3B4161",
"a$	c #404157",
"b$	c #444C6E",
"c$	c #76839E",
"d$	c #73839C",
"e$	c #74849E",
"f$	c #4C5475",
"g$	c #454D6D",
"h$	c #434A68",
"i$	c #515E7D",
"j$	c #6E7F98",
"k$	c #7686A1",
"l$	c #717E9B",
"m$	c #77869F",
"n$	c #79869F",
"o$	c #7A879E",
"p$	c #6F809D",
"q$	c #6F7E9E",
"r$	c #6F7D9D",
"s$	c #4E5979",
"t$	c #475271",
"u$	c #475276",
"v$	c #6E7F99",
"w$	c #7985A3",
"x$	c #7783A1",
"y$	c #6F7D98",
"z$	c #7583A1",
"A$	c #7784A3",
"B$	c #7883A2",
"C$	c #7C87A0",
"D$	c #7A869B",
"E$	c #77849D",
"F$	c #70809E",
"G$	c #6F7F9F",
"H$	c #4D5A79",
"I$	c #48536E",
"J$	c #4A5473",
"K$	c #5B6989",
"L$	c #5B6A89",
"M$	c #5F6B88",
"N$	c #939EB7",
"O$	c #9EA9BF",
"P$	c #9CA7BE",
"Q$	c #8591AA",
"R$	c #7786A4",
"S$	c #6F7C97",
"T$	c #5E6B8A",
"U$	c #646E8D",
"V$	c #737E97",
"W$	c #9DAABD",
"X$	c #9CAABD",
"Y$	c #95A4BB",
"Z$	c #6F7F9C",
"`$	c #495575",
" %	c #45506B",
".%	c #474E66",
"+%	c #6B7898",
"@%	c #3D4B6D",
"#%	c #354367",
"$%	c #3C4865",
"%%	c #B0BBCE",
"&%	c #C1CBDC",
"*%	c #C0CBDE",
"=%	c #98A3BB",
"-%	c #7986A1",
";%	c #7886A4",
">%	c #616E89",
",%	c #374465",
"'%	c #384263",
")%	c #6A758D",
"!%	c #BFCCDD",
"~%	c #B6C4D8",
"{%	c #74849C",
"]%	c #6D7A9A",
"^%	c #424D6F",
"/%	c #3A4463",
"(%	c #40425B",
"_%	c #6C7999",
":%	c #3C4A6D",
"<%	c #354268",
"[%	c #3E4A67",
"}%	c #AFBACE",
"|%	c #C3CCDE",
"1%	c #C0CADF",
"2%	c #96A0BA",
"3%	c #7985A1",
"4%	c #616F8B",
"5%	c #374466",
"6%	c #384366",
"7%	c #68728C",
"8%	c #BDC9DF",
"9%	c #C1CDE0",
"0%	c #B7C5D8",
"a%	c #76869C",
"b%	c #6E7B99",
"c%	c #434C70",
"d%	c #3A4265",
"e%	c #3F3F5D",
"f%	c #536080",
"g%	c #7885A5",
"h%	c #7986A6",
"i%	c #495677",
"j%	c #435172",
"k%	c #495574",
"l%	c #929CB6",
"m%	c #A2ACC3",
"n%	c #A2ACC5",
"o%	c #8793AD",
"p%	c #65738F",
"q%	c #434F71",
"r%	c #454F74",
"s%	c #626C89",
"t%	c #A0ABC3",
"u%	c #A1ABC2",
"v%	c #9BA8BE",
"w%	c #7A89A0",
"x%	c #7683A1",
"y%	c #444D70",
"z%	c #3A4267",
"A%	c #3E4160",
"B%	c #576383",
"C%	c #8895B5",
"D%	c #8390B0",
"E%	c #5D6C8B",
"F%	c #586886",
"G%	c #414D6F",
"H%	c #364263",
"I%	c #364362",
"J%	c #677590",
"K%	c #727F9E",
"L%	c #6F7C99",
"M%	c #5A6689",
"N%	c #5D668C",
"O%	c #576182",
"P%	c #394360",
"Q%	c #454F6A",
"R%	c #828FAA",
"S%	c #8590AE",
"T%	c #475073",
"U%	c #394265",
"V%	c #3B445E",
"W%	c #465475",
"X%	c #576584",
"Y%	c #8694B3",
"Z%	c #8795B2",
"`%	c #8291AD",
" &	c #5D6D89",
".&	c #586884",
"+&	c #596886",
"@&	c #3F4D6E",
"#&	c #364466",
"$&	c #374565",
"%&	c #677593",
"&&	c #6F7E98",
"*&	c #6C7A97",
"=&	c #596788",
"-&	c #596789",
";&	c #556282",
">&	c #384464",
",&	c #434F6B",
"'&	c #8290AA",
")&	c #8692AE",
"!&	c #465172",
"~&	c #394364",
"{&	c #3D435A",
"]&	c #465576",
"^&	c #475676",
"/&	c #556482",
"(&	c #8493B0",
"_&	c #8797B1",
":&	c #8292AB",
"<&	c #65758F",
"[&	c #62708D",
"}&	c #5F6E8B",
"|&	c #485673",
"1&	c #404F6D",
"2&	c #687796",
"3&	c #6F809E",
"4&	c #7787A2",
"5&	c #6C7B98",
"6&	c #5E6D8B",
"7&	c #5D6C8C",
"8&	c #596889",
"9&	c #475576",
"0&	c #465274",
"a&	c #505D79",
"b&	c #8391AA",
"c&	c #8492AD",
"d&	c #445170",
"e&	c #3F4159",
"f&	c #556481",
"g&	c #8595B0",
"h&	c #8595AE",
"i&	c #8797B0",
"j&	c #8393AD",
"k&	c #8493AF",
"l&	c #6D7C9B",
"m&	c #71809E",
"n&	c #7786A5",
"o&	c #8492B2",
"p&	c #8291AE",
"q&	c #8493AD",
"r&	c #8797AF",
"s&	c #8796AF",
"t&	c #364363",
"u&	c #465573",
"v&	c #475673",
"w&	c #8594AF",
"x&	c #8696AF",
"y&	c #8494AD",
"z&	c #8595B1",
"A&	c #8695B1",
"B&	c #8696AE",
"C&	c #8696AD",
"D&	c #8392AF",
"E&	c #435273",
"F&	c #485572",
"G&	c #495672",
"H&	c #56637E",
"I&	c #8491AC",
"J&	c #8592AD",
"K&	c #8492AC",
"L&	c #8390AC",
"M&	c #75829E",
"N&	c #6E7B98",
"O&	c #6E7C99",
"P&	c #8390AB",
"Q&	c #8492AA",
"R&	c #8493AA",
"S&	c #8492AB",
"T&	c #8391AB",
"U&	c #808EAB",
"V&	c #374462",
"W&	c #3E4158",
"X&	c #353D5A",
"Y&	c #333C58",
"Z&	c #353E5A",
"`&	c #3D4662",
" *	c #3D4562",
".*	c #3D4561",
"+*	c #3E4662",
"@*	c #3A435F",
"#*	c #3A4260",
"$*	c #3A4261",
"%*	c #3A4360",
"&*	c #39425E",
"**	c #39415E",
"=*	c #3B4360",
"-*	c #3D4661",
";*	c #3C4760",
">*	c #3C4761",
",*	c #3A4460",
"'*	c #3D4765",
")*	c #323C5A",
"!*	c #303B57",
"~*	c #363850",
"{*	c #313653",
"]*	c #323754",
"^*	c #313654",
"/*	c #323654",
"(*	c #313553",
"_*	c #313655",
":*	c #313656",
"<*	c #333754",
"[*	c #333855",
"}*	c #313754",
"|*	c #303653",
"1*	c #303654",
"2*	c #313855",
"3*	c #2F3552",
"4*	c #313753",
"5*	c #2D364F",
"6*	c #33364D",
"7*	c #36354E",
"8*	c #36354F",
"9*	c #37354F",
"0*	c #36344E",
"a*	c #36344F",
"b*	c #36334F",
"c*	c #37344E",
"d*	c #35354B",
"e*	c #36354B",
"f*	c #35344C",
"g*	c #36354C",
"h*	c #36354D",
"i*	c #35354C",
"j*	c #36354A",
"k*	c #37354C",
"l*	c #35354D",
"m*	c #35354E",
"n*	c #35364B",
"o*	c #36364B",
"p*	c #36364C",
"q*	c #36364D",
"r*	c #34354B",
"s*	c #34354A",
"t*	c #36374B",
"u*	c #373548",
"v*	c #3F3241",
"  . + @ # $ % & * = - ; > , ' ) ! ! ) ' ~ { ] ^ / ( _ : < [ [ } | 1 [ 2 3 4 5 5 6 7 8 9 9 0 a b c d ",
"e f g h i j k l m n o o p q r r r r r r s t t t t t t t p p p p p p r r r j u v w x y y y z A B C D ",
"E F G H I J K L M N O P Q P R R R R R R R S S S S S S S R R R R R R R S S S T U S V W W W X Y Z `  .",
"..+.@.#.$.%.&.*.=.-.;.>.,.'.).!.!.).!.!.~.{.{.{.{.{.{.{.].].].].].].^.!./.(._.>.:.<.[.}.}.|.1.2.3.4.",
"5.6.7.8.9.0.a.b.c.d.e.f.g.h.i.i.i.i.j.i.j.j.j.j.j.j.j.j.j.i.i.j.i.i.k.l.m.n.o.p.q.a.[.[.r.[.s.t.u.v.",
"w.x.7.y.z.A.B.C.D.E.F.G.H.'.I.J.K.L.K.M.I.I.I.I.I.I.I.I.i.I.I._.L.K.N.O.m.P.Q.R.S.T.U.V.W.[.X.Y.Z.`.",
" +.+7.++|.@+#+$+%+&+*+=+-+;+>+,+].].'+)+!+;+;+;+;+;+;+!+~+)+{+]+^+/+(+_+:+<+[+}+|+1+2+3+4+5+r.6+7+8+",
"9+0+a+1.y.b+c+d+e+f+g+h+i+j+k+k+>.l+m+n+;+;+;+;+;+;+;+q.o+o+p+q+r+s+/+(+k.t+u+v+w+x+y+z+A+B+C+D+E+F+",
"G+H+I+J+J+K+L+M+N+O+P+Q+R+S+!+T+l+l+m+U+!+!+!+!+!+!+!+U+V+W+W+X+Y+'.I.:+Z+`+ @.@+@@@#@$@%@&@*@=@-@;@",
"5.H+>@,@,@,@'@)@!@~@{@]@^@U+U+!+!+!+!+U+!+!+!+!+!+!+!+/@(@'.(@'.Y+'._@:@<@[@}@|@1@2@3@4@^.5@6@7@-@8@",
"5.H+9@0@6@a@b@c@d@e@f@-@g@h@U+!+n+!+U+U+U+!+!+!+!+!+!+o+(@Y+'.Y+'.Y+_@i@j@k@l@m@n@o@p@q@r@s@t@u@v@8@",
"5.5.9@a@a@0@w@x@y@z@3.A@B@C@U+U+U+!+!+!+!+!+!+U+U+!+n+U+(@Y+(@Y+'.'.k+!+D@E@F@G@H@I@J@K@L@M@N@O@P@Q@",
"5.5.9@t@0@R@S@T@U@V@W@X@Y@~+U+U+U+!+!+!+!+!+!+U+!+Z@Z@Y@'.'.'.`@`@W+o+;+W+ #.#[@+#@###$#%#M@N@O@P@Q@",
"5.5.9@&#R@0@K.*#J.=#-#o+:.;#U+U+U+!+!+!+!+!+!+U+k+>.l+f.>#Y+'.W+W+V+,#'#,#)#!#Z+~#~+{#]#_.j.N@^#/#(#",
"5.5._#:#<#<#(.[#].`@,#p+C@!+U+U+U+!+!+!+!+}#}#p+/@s+L.f.s+r+s+o+o+p+!+;+|#/@I.1#2#3#U+4#_.5#t@K@6#7#",
"8#8#9#i.i.Z+0#T+!+/@a#b#c#b#T+!+U+!+!+U+)+<@d#e#f#i.j._.T+T+!+!+!+!+!+g#g#h#k+T+k+U+:@i#i.!#t@j#6#k#",
"l#l#m#i.j.n#o#!+n+(@Y+Y+0@>#>.T+U+!+!+U+o+d#j.i.j.i.i.Y+k+n+U+!+!+!+!+d.g#g#!+U+p+p+:@i#i.!#t@j#-@;@",
"l#l#m#i.i.n#}#k+n+Y@Y+Y+0@5#l+T+U+!+!+U+o+d#i.i.i.i.j.I.!+!+U+!+!+!+!+d.!+U+n+V+V+p+:@i#i.!#t@j#p#8@",
"l#l#m#j.i.Z+V+!+U+Y@'.'.R@5#>.k+!+!+!+T+/@n#j.i.Z+d#f#5@k+U+U+!+U+U+!+U+U+U+h@h@h@0#q#5@j.0@t@r#p#s#",
"l#l#m#j.i.Z+o#!+U+Y@'.'.R@Y+>.k+!+!+T+l+f.j.i.j.i.t#u#W+!+U+U+!+U+U+!+U+!+`@'.Y+5#Y+N._.j.0@t@r#E+v#",
"l#l#m#j.i.Z+o#!+U+Y@'.'.R@Y+>.k+!+!+T+>./+i.Z+i.Z+<@t#w#!+!+!+!+U+U+!+U+!+h@Y+5#0@5#x#L.j.0@t@r#-@y#",
"_#z#A#K.Y+(@C@!+U+B#q+q+X+C#D#>+>+o+5@i.i.s+E#Y@5@w#p+F#k+k+k+U+U+U+!+o+`@h@Y+G#,.Y+x#K.i.!#t@r#H#I#",
"J#K#L#M#Y+N#O#!+U+U+!+U+U+3#:@q#_.i.M@M@i.P#U+U+U+U+U+U+P#>.>.U+U+U+o+W+W+h@Y+Y+'.i.i.i.i.!#t@Q#R#S#",
"9+T#U#M#Y+N#O#!+U+U+!+U+U+3#q#q#I.i.V#W#i.P#U+U+U+U+U+!+P#>.l+!+U+U+p+V+V+`@'.Y+'.i.i.i.i.!#t@Q#X#Y#",
"J#Z#L#`#Y+N#O#!+U+U+U+U+!+w#e#d#j. $i.Z+I.m+n+U+!+!+k+k+P#P#P#!+U+U+p+.$`@a#'.Y+'.i.i.i.i.!#t@Q#J@+$",
"5.@$#$$$i.N#O#!+!+U+U+n+Z@s+j.j.j.j.%$&$w#!+!+U+k+>.l+>.k+U+U+U+!+U+B#'.'.'.Y+'.'.Y+j.j.j.!#t@Q#*$=$",
"5.@$#$$$i.N#|#!+U+n+U+U+m+_.M@V#i.j.]+{+)+!+!+U+k+>.l+l+k+U+U+U+!+U+T+'.'.'.Y+Y+Y+j.i.i.i.!#t@Q#-$;$",
"5.@$#$$$i.N#|#!+U+!+k+!+Z@'.s@s@V#i.2#:@>$!+!+U+k+>.>.>.k+U+U+U+!+U+B#'.'.'.'.Y+'.'.i.Z+j.!#t@Q#,$'$",
"5.5.)$!$5#~${$/@p+E#s+]$s+j.Y+h@}#0#>+)+!+!+!+U+!+k+k+T+>+)+p+E#s+(@i.Y+i.i.^$Y+a#w#i#/$J.5#N@^#($_$",
"5.5.9@a@0@,@:$<@u#Z+j.j.j.f.l+T+!+!+!+!+!+!+!+U+!+!+!+>+{+{+t#f#i.s@<$j.j.j.'.Y+X+)+[$q#}$K.N@|$1$2$",
"5.5.9@a@R@,@:$<@D@n#i.j.i.I.>.k+U+!+!+!+!+!+!+U+!+!+!+)+:@:@}#n#i.s@V#j.j.i.i.Y+a#F#[$q#}$K.N@|$3$4$",
"5.5.9@0@R@0@5$n#n#i.i.i.f#`@T+!+!+!+!+!+!+!+!+U+!+!+!+>+]+/.6$i.j.W#V#7$N.'+k+k+!+~+[$q#}$K.N@|$3$8$",
"5.5.9@0@R@R@!#j.j.i.i.i.e#o#U+!+U+U+U+U+U+!+!+U+;+U+!+>+/.^._.j.i.M@j.^.N.2#~+!+U+U+[$q#}$j.a@9$0$a$",
"5.5.9@0@R@R@5#j.i.j.i.j.e#o#U+U+U+!+U+U+U+!+!+U+U+!+U+>+^.^.K.i.i.M@<$7$^.2#!+!+U+U+[$q#}$i.t@b$1$a$",
"5.5.9@0@R@R@!#j.Z+f#d#d#t#V+!+k+m+m+c$!+!+!+!+U+k+P#Z@C#N.^.K.i.j.s@%$d$e$[$!+!+g#g#[$q#}$K.a@f$g$h$",
"5.5.i$0@R@R@ $j$Z+:$:$=#k$>$!+T+l+l+Z@!+!+!+U+p+/@f.l$_.1#k._.^$j.V#e#>+m$~+!+H.n$o$~+i#p$q$r$s$t$u$",
"5.H+_#a@6@R@<$v$Z+w$x$q.>$d.!+T+l+y$m+U+U+!+U+p+`@'.0@!#j.i.i.j.'.'.z$V+!+U+A$B$C$D$E$)+F$G$M@H$I$J$",
"5.H+_#0@0@a@K$L$M$N$O$P$Q$d.U+!+k+T+k+U+U+!+k+o+h@'.R@!#j.i.i.a#h@`@R$<@k+S$T$U$V$W$X$Y$(.Z$L@`$ %.%",
"5.H+_#a@6@+%@%#%$%%%&%*%=%-%U+U+U+U+!+n+U+T+>.s+Y+^$R@!#j.i.i.`@W+V+;%`@g#>%,%'%)%h !%~%{%^.]%^%/%(%",
"5.5.i$a@0@_%:%<%[%}%|%1%2%3%!+!+!+!+!+U+U+T+l+Y+'.'.R@!#i.j.i.`@W+W+<@}#g#4%5%6%7%8%9%0%a%^.b%c%d%e%",
"5.H+f%g%h%c#i%j%k%l%m%n%o%!+!+!+!+!+!+k+U+k+>.Y+'.'.R@<#n#f#f#W+W+W+W+}#U+p%q%r%s%t%u%v%w%:.x%y%z%A%",
"G+H+B%J+C%D%E%F%A#G%H%I%J%>+!+!+!+!+T+l+>.l+l+s+'.'.R@K%e#t#t#W+W+W+<@p+!+L%M%N%O%v@P%Q%R%|.S%T%U%V%",
"W%H+X%Y%Z%`% &.&+&@&#&$&%&w#!+!+!+>$,+&&/+Y+i.<#<#<#R@%#d#<@<@W+W+W+w#>+o+*&=&-&;&>&Z.,&'&[.)&!&~&{&",
"]&^&/&(&_&:&<&[&}&|&1&1&2&u#:@:@:@:@e${.k.3&3&3&3&3&3&F$e#<@<@t#<@<@&$4&e#5&6&7&8&9&0&a&b&*.c&d&I%e&",
"@$K#f&g&h&i&j&k&(&f#S@l&W#m&I.I.I.J._.J.J.p$p$p$p$p$p$Z$j.i.Z+Z+Z+Z+_.i.Z+i.s@M@n&o&p&q&r&s&++j%t&e&",
"u&v&f&w&&@x&y&&@z&e#j.m&s@m&i.i.i.i. $i.j.i.i.i.i.i.i.i.j.i.i.i.i.i.i.i.i.j.<$i.;%A&x&B&C&r&D&E&t&e&",
"F&G&H&I&J&K&I&I&L&M&N&b%b%N@b%O&O&O&b%b%b%b%O&O&b%b%b%b%b%b%O&b%b%b%b%b%b%b%^$N&]#P&Q&R&S&T&U&2.V&W&",
"X&Y&Z&`&`& *`&.*+*@*#*$*$*$*$*$*$*$*$*$*%*@*@*@*@*@*@*#*$*$*$*$*$*$*$*$*$*$*&***=*-*;*;*>*,*'*)*!*~*",
"{*]*]*{*^*/*^*{*(*^*^*_*:*_*^*^*^*^*^*^*^*^*^*^*^*^*^*_*:*:*:*:*:*:*:*:*:*_*^*<*[*}*|*|*1*2*3*4*5*6*",
"7*8*9*0*a*b*c*d*e*f*g*h*7*h*i*i*i*i*e*j*j*g*g*g*g*k*k*g*i*l*l*m*7*h*h*m*l*n*o*n*p*q*l*p*p*r*s*t*u*v*"};
